<?xml version="1.0" encoding="utf-8"?>
<!-- Generator: Adobe Illustrator 24.1.1, SVG Export Plug-In . SVG Version: 6.00 Build 0)  -->
<svg version="1.1" id="레이어_1" xmlns="http://www.w3.org/2000/svg" xmlns:xlink="http://www.w3.org/1999/xlink" x="0px"
	 y="0px" viewBox="0 0 800 533.3" style="enable-background:new 0 0 800 533.3;" xml:space="preserve">
<style type="text/css">
	.st0{fill:#212121;}
	.st1{fill:#303030;}
</style>
<image style="overflow:visible;enable-background:new    ;" width="1000" height="667" xlink:href="71AB8427.jpeg"  transform="matrix(0.802 0 0 0.802 -0.5 -0.3333)">
</image>
<g>
	<g>
		<g>
			<g>
				<g>
					<polygon class="st0" points="1335.2,137.9 1353.1,164.7 1355,164.7 1335.6,137.7 					"/>
					<polygon class="st0" points="1332.2,137.8 1350.1,164.5 1351.9,164.6 1332.5,137.6 					"/>
				</g>
				<path class="st0" d="M1336.8,131.7c-0.1-2.8-3.4-5-7.6-5.2c-4.2-0.2-7.6,1.8-8,4.5l-24.6,30.4l-0.7,0.9l2.8,0.1l23.2-28.7
					l1.7-2.1l0.1-0.1c0,0,0,0,0,0c0,0,0-0.1,0-0.1c0.2-1.2,2.5-2.4,5.4-2.3c2.9,0.1,5.1,1.5,5.2,2.7c0,0,0,0.1,0,0.1c0,0,0,0,0,0
					l1.6,2.4l20.6,30.3l0.2,0.2l2.8,0.1L1336.8,131.7z"/>
				<path class="st0" d="M1324.1,137.5c0,0-0.1,0.2-0.1,0.2c-5.3,9.6-12.4,18.5-21.4,24.8l2.3,0.1c8.3-6.6,14.6-15.4,19.5-24.7
					c0,0,0.1-0.2,0.1-0.2L1324.1,137.5z"/>
				<path class="st0" d="M1321.5,136.8c0,0-0.1,0.2-0.1,0.2c-6.2,9.3-13.6,17.7-21.6,25.5l2,0.1c7.4-7.8,14.3-16.2,20-25.3
					c0,0,0.1-0.2,0.1-0.2C1321.9,137,1321.5,136.8,1321.5,136.8z"/>
				<path class="st0" d="M1328.4,136.2c0,0-1,0.6-1.7,2c-2.9,5.7-9,19.5-20.7,24.5l2.7,0.1c9.8-5.3,15.3-16.2,18.3-22.4v0
					c0,0,0.7-1.4,1.1-2l18.5,25.9l0.1,0.1l2,0.1L1328.4,136.2z"/>
			</g>
			<g>
				<path class="st0" d="M1384.2,148.4c-0.6-0.1-1.1-0.2-1.7-0.3s-1.1-0.3-1.6-0.5c-0.5-0.2-1-0.5-1.4-0.8c-0.4-0.3-0.7-0.7-1-1.2
					c-0.3,0.4-0.8,0.8-1.3,1.1c-0.5,0.3-1.1,0.5-1.6,0.7c-0.6,0.2-1.1,0.3-1.7,0.4c-0.6,0.1-1.1,0.2-1.5,0.2l0.2-4.3
					c0.4,0,0.9-0.1,1.3-0.2c0.4-0.1,0.8-0.2,1.2-0.5c0.4-0.3,0.7-0.7,0.9-1.2c0.2-0.6,0.4-1.3,0.4-2.4l0.2-3.7l4.6,0.2l-0.2,3.7
					c0,1,0,1.8,0.2,2.3c0.2,0.6,0.4,1,0.7,1.3c0.3,0.3,0.7,0.5,1.1,0.6s0.9,0.2,1.3,0.3L1384.2,148.4z M1389.7,159
					c0.7,0,1.3-0.1,1.8-0.3c0.5-0.2,1-0.5,1.3-0.9c0.4-0.4,0.6-0.8,0.8-1.3c0.2-0.5,0.3-0.9,0.3-1.4l0.1-1.9c0-0.5,0-1-0.2-1.5
					c-0.1-0.5-0.4-0.9-0.7-1.3c-0.3-0.4-0.7-0.7-1.3-0.9c-0.5-0.2-1.1-0.4-1.8-0.4l-12-0.5c-0.7,0-1.3,0.1-1.9,0.3
					c-0.5,0.2-1,0.5-1.4,0.8c-0.4,0.4-0.6,0.8-0.8,1.2c-0.2,0.5-0.3,0.9-0.3,1.4l-0.1,1.9c0,0.4,0,0.9,0.2,1.4
					c0.2,0.5,0.4,0.9,0.7,1.3c0.3,0.4,0.8,0.7,1.3,1c0.5,0.3,1.1,0.4,1.8,0.4L1389.7,159z M1379.6,154.7c-0.3,0-0.6-0.1-0.7-0.3
					c-0.2-0.2-0.2-0.4-0.2-0.6c0-0.2,0.1-0.4,0.3-0.6s0.4-0.3,0.7-0.3l8.4,0.3c0.3,0,0.6,0.1,0.7,0.3c0.2,0.2,0.2,0.4,0.2,0.6
					c0,0.2-0.1,0.4-0.3,0.6c-0.2,0.2-0.4,0.3-0.7,0.3L1379.6,154.7z M1394.2,148.9l-4.3-0.2l0.2-4.6l-0.9,0l-0.2,4.6l-4.2-0.2
					l0.5-12.5l4.2,0.2l-0.2,3.8l0.9,0l0.2-3.8l4.3,0.2L1394.2,148.9z"/>
				<path class="st0" d="M1397.1,148l0.2-3.8l14.7,0.6l0.5-3.3l-14.3-0.6l0.2-4.1l19.7,0.8l-1,7.4l1.4,0.1l-0.2,3.8L1397.1,148z
					 M1417.2,160.2l-19.9-0.8l0.3-6.6l14.6,0.6l0-0.6l-14.6-0.6l0.1-3.2l19.7,0.8l-0.3,6.6l-14.6-0.6l0,0.6l14.9,0.6L1417.2,160.2z"
					/>
			</g>
		</g>
		<g>
			<path class="st0" d="M1272.3,183.2l3.7-15.1l1.8,0.1l4.1,11.7l-0.9-0.1l9.4-11.1l1.9,0.1l-3.7,15.1l-2.1-0.1l2.9-11.9l0.5,0.1
				l-8.3,9.8l-1,0l-3.7-10.3l0.5,0.1l-2.9,11.8L1272.3,183.2z"/>
			<path class="st0" d="M1297.8,184.3c-1,0-1.8-0.3-2.5-0.7c-0.7-0.4-1.3-1-1.6-1.7c-0.4-0.7-0.5-1.5-0.5-2.5c0-1,0.2-1.9,0.6-2.7
				c0.3-0.8,0.8-1.5,1.4-2.1c0.6-0.6,1.3-1,2.1-1.3c0.8-0.3,1.7-0.4,2.6-0.4c1,0,1.8,0.3,2.5,0.6c0.7,0.4,1.2,0.9,1.5,1.6
				c0.3,0.7,0.5,1.5,0.5,2.4c0,1.3-0.3,2.5-0.9,3.5c-0.6,1-1.3,1.8-2.3,2.4C1300.1,184.1,1299,184.3,1297.8,184.3z M1297.9,183.7
				c1.1,0,2.1-0.2,2.9-0.7c0.9-0.5,1.6-1.2,2.1-2.1c0.5-0.9,0.8-1.9,0.9-3.1c0.1-1.3-0.3-2.3-1-3c-0.7-0.7-1.7-1.1-3.1-1.2
				c-1.1,0-2,0.2-2.9,0.7c-0.9,0.5-1.6,1.2-2.1,2.1c-0.5,0.9-0.8,1.9-0.9,3.1c-0.1,1.3,0.3,2.3,1,3S1296.6,183.6,1297.9,183.7z
				 M1302.3,184.4l0.9-3.7l0.7-1.7l0.2-1.8l0.9-3.9l0.7,0l-2.7,11.2L1302.3,184.4z"/>
			<path class="st0" d="M1315.6,173.6c1,0,1.9,0.3,2.5,0.7c0.6,0.4,1,1,1.2,1.7c0.2,0.7,0.2,1.5,0,2.5l-1.6,6.5l-0.7,0l1.6-6.5
				c0.3-1.2,0.2-2.3-0.3-3c-0.5-0.8-1.4-1.2-2.8-1.2c-1.4-0.1-2.5,0.3-3.5,1c-1,0.7-1.6,1.8-2,3.3l-1.5,6.2l-0.7,0l2.7-11.2l0.7,0
				l-0.8,3.2l-0.3-0.1c0.6-1.1,1.3-1.9,2.3-2.4C1313.4,173.8,1314.4,173.5,1315.6,173.6z"/>
			<path class="st0" d="M1326.9,185.5c-1,0-1.8-0.3-2.4-0.7s-1-1-1.2-1.7c-0.2-0.7-0.2-1.6,0-2.5l1.6-6.5l0.7,0l-1.6,6.5
				c-0.3,1.2-0.2,2.2,0.3,3c0.5,0.8,1.4,1.2,2.7,1.2c1.4,0.1,2.5-0.3,3.4-1c0.9-0.7,1.6-1.8,1.9-3.3l1.5-6.2l0.7,0l-2.7,11.2l-0.7,0
				l0.8-3.2l0.2,0.1c-0.6,1.1-1.3,1.9-2.3,2.4C1329.1,185.3,1328.1,185.6,1326.9,185.5z"/>
			<path class="st0" d="M1341.4,186.1c-1,0-1.8-0.3-2.5-0.7c-0.7-0.4-1.3-1-1.6-1.7c-0.4-0.7-0.5-1.5-0.5-2.5c0-1,0.2-1.9,0.6-2.7
				c0.3-0.8,0.8-1.5,1.4-2.1c0.6-0.6,1.3-1,2.1-1.3c0.8-0.3,1.7-0.4,2.6-0.4c1,0,1.8,0.3,2.5,0.6c0.7,0.4,1.2,0.9,1.5,1.6
				c0.3,0.7,0.5,1.5,0.5,2.4c0,1.3-0.3,2.5-0.9,3.5c-0.6,1-1.3,1.8-2.3,2.4C1343.7,185.9,1342.6,186.2,1341.4,186.1z M1341.5,185.5
				c1.1,0,2.1-0.2,2.9-0.7c0.9-0.5,1.6-1.2,2.1-2.1c0.5-0.9,0.8-1.9,0.9-3.1c0.1-1.3-0.3-2.3-1-3c-0.7-0.7-1.7-1.1-3.1-1.2
				c-1.1,0-2,0.2-2.9,0.7c-0.9,0.5-1.6,1.2-2.1,2.1c-0.5,0.9-0.8,1.9-0.9,3.1c-0.1,1.3,0.3,2.3,1,3
				C1339.2,185,1340.2,185.4,1341.5,185.5z M1345.9,186.2l0.9-3.7l0.7-1.7l0.2-1.8l0.9-3.9l0.7,0l-2.7,11.2L1345.9,186.2z"/>
			<path class="st0" d="M1351.4,186.5l3.9-16l0.7,0l-3.9,16L1351.4,186.5z"/>
			<path class="st0" d="M1362.3,186.9l3.7-15.1l6.7,0.3c1.5,0.1,2.7,0.4,3.5,1c0.8,0.6,1.2,1.4,1.2,2.5c0,1-0.3,1.8-0.8,2.4
				c-0.5,0.6-1.1,1.1-1.9,1.4c-0.8,0.3-1.6,0.4-2.4,0.4l0.5-0.6c1.1,0,2,0.4,2.7,1c0.7,0.6,1,1.4,0.9,2.5c0,1-0.4,1.9-0.9,2.6
				c-0.6,0.7-1.4,1.2-2.4,1.5c-1,0.3-2.2,0.4-3.5,0.4L1362.3,186.9z M1364.9,185.3l5,0.2c1.4,0.1,2.4-0.2,3.2-0.6
				c0.8-0.5,1.2-1.2,1.2-2.2c0-0.8-0.2-1.3-0.8-1.7c-0.5-0.3-1.3-0.5-2.3-0.6l-5.4-0.2l0.4-1.7l4.8,0.2c0.8,0,1.5,0,2.1-0.2
				c0.6-0.2,1.1-0.5,1.4-0.9c0.4-0.4,0.5-1,0.6-1.6c0-0.7-0.2-1.2-0.7-1.5c-0.5-0.3-1.2-0.5-2.2-0.6l-4.5-0.2L1364.9,185.3z"/>
			<path class="st0" d="M1383.5,187.9c-1,0-1.8-0.3-2.4-0.7c-0.6-0.4-1-1-1.2-1.7c-0.2-0.7-0.2-1.6,0-2.5l1.6-6.5l0.7,0l-1.6,6.5
				c-0.3,1.2-0.2,2.2,0.3,3c0.5,0.8,1.4,1.2,2.7,1.2c1.4,0.1,2.5-0.3,3.4-1c0.9-0.7,1.6-1.8,1.9-3.3l1.5-6.2l0.7,0l-2.7,11.2l-0.7,0
				l0.8-3.2l0.2,0.1c-0.6,1.1-1.3,1.9-2.3,2.4C1385.7,187.7,1384.6,187.9,1383.5,187.9z"/>
			<path class="st0" d="M1393.3,188.2l2.7-11.2l0.7,0l-2.7,11.2L1393.3,188.2z M1397.2,174.1c-0.2,0-0.3-0.1-0.5-0.2
				c-0.1-0.1-0.2-0.3-0.2-0.5c0-0.2,0.1-0.4,0.3-0.5c0.2-0.1,0.3-0.2,0.5-0.2c0.2,0,0.3,0.1,0.5,0.2c0.1,0.1,0.2,0.3,0.2,0.5
				c0,0.2-0.1,0.4-0.3,0.5C1397.6,174.1,1397.4,174.1,1397.2,174.1z"/>
			<path class="st0" d="M1398.9,188.4l3.9-16l0.7,0l-3.9,16L1398.9,188.4z"/>
			<path class="st0" d="M1409,188.9c-1,0-1.8-0.3-2.5-0.7c-0.7-0.4-1.3-1-1.6-1.7c-0.4-0.7-0.5-1.5-0.5-2.5c0-1,0.2-1.9,0.6-2.7
				c0.3-0.8,0.8-1.5,1.4-2.1c0.6-0.6,1.3-1,2.1-1.3c0.8-0.3,1.7-0.4,2.6-0.4c1,0,1.8,0.3,2.5,0.6c0.7,0.4,1.2,0.9,1.5,1.6
				c0.3,0.7,0.5,1.5,0.5,2.4c0,1-0.2,1.9-0.6,2.7c-0.3,0.8-0.8,1.5-1.4,2.1c-0.6,0.6-1.3,1-2,1.4
				C1410.8,188.8,1409.9,189,1409,188.9z M1409.1,188.3c1.1,0,2.1-0.2,2.9-0.7c0.9-0.5,1.6-1.2,2.1-2.1c0.5-0.9,0.8-1.9,0.9-3.1
				c0.1-1.3-0.3-2.3-1-3c-0.7-0.7-1.7-1.1-3.1-1.2c-1.1,0-2,0.2-2.9,0.7c-0.9,0.5-1.6,1.2-2.1,2.1c-0.5,0.9-0.8,1.9-0.9,3.1
				c-0.1,1.3,0.3,2.3,1,3C1406.8,187.8,1407.8,188.2,1409.1,188.3z M1413.5,189l0.9-3.7l0.7-1.7l0.2-1.8l2.1-8.7l0.7,0l-3.9,16
				L1413.5,189z"/>
			<path class="st0" d="M1423.8,189.5c-1,0-1.9-0.3-2.7-0.7c-0.7-0.4-1.3-1-1.7-1.7c-0.4-0.7-0.5-1.6-0.5-2.5
				c0.1-1.3,0.4-2.4,0.9-3.4c0.6-1,1.3-1.8,2.3-2.3c0.9-0.6,2-0.8,3.2-0.8c1,0,1.8,0.3,2.5,0.7c0.7,0.4,1.2,1,1.5,1.7
				c0.3,0.7,0.5,1.6,0.5,2.5c0,0.2,0,0.4-0.1,0.6c0,0.2-0.1,0.4-0.1,0.6l-10.1-0.4l0.2-0.6l9.6,0.4l-0.3,0.3c0.2-1,0.2-1.9-0.1-2.7
				c-0.3-0.7-0.7-1.3-1.4-1.7c-0.6-0.4-1.4-0.6-2.3-0.7c-1,0-2,0.2-2.8,0.7c-0.8,0.5-1.5,1.2-2,2.1c-0.5,0.9-0.8,1.9-0.8,3.1
				c-0.1,1.3,0.3,2.3,1,3c0.7,0.7,1.8,1.1,3.2,1.2c0.8,0,1.6-0.1,2.3-0.3c0.7-0.3,1.3-0.6,1.8-1.1l0.3,0.5c-0.5,0.5-1.1,0.9-1.9,1.2
				C1425.6,189.5,1424.7,189.6,1423.8,189.5z"/>
			<path class="st0" d="M1431.9,189.8l2.7-11.2l0.7,0l-0.8,3.4l-0.1-0.2c0.5-1,1.2-1.8,2.1-2.4c0.9-0.5,2-0.8,3.3-0.7l-0.2,0.7
				c0,0-0.1,0-0.1,0c0,0-0.1,0-0.1,0c-1.3-0.1-2.4,0.3-3.3,1.1c-0.9,0.8-1.5,1.9-1.9,3.5l-1.4,5.8L1431.9,189.8z"/>
		</g>
	</g>
</g>
<g>
	<g>
		<path class="st1" d="M1272,261h-3.1v2.7h-1.1V261h-3v-0.9h7.2V261z M1265.1,258.8c1.6-0.2,2.5-1,2.6-1.8h-2.3v-0.9h5.9v0.9h-2.3
			c0.1,0.8,1,1.6,2.6,1.8l-0.4,0.9c-1.4-0.2-2.4-0.8-2.9-1.6c-0.5,0.8-1.5,1.4-2.9,1.6L1265.1,258.8z"/>
		<path class="st1" d="M1277.2,260.1c-0.9-0.3-1.5-0.9-1.9-1.6c-0.4,0.8-1,1.4-2,1.7l-0.6-0.9c1.3-0.4,1.9-1.5,1.9-2.5V256h1.2v0.8
			c0,1,0.6,2,1.9,2.4L1277.2,260.1z M1274,260.8h5.5v2.9h-1.2v-2h-4.3V260.8z M1279.5,255.7v4.8h-1.2v-4.8H1279.5z"/>
		<path class="st1" d="M1284,261.4c0.7,0,1.3-0.1,1.9-0.2l0.1,0.8c-1.8,0.3-3.6,0.3-5,0.3l-0.1-0.9c0.6,0,1.3,0,2,0v-0.7
			c-0.9-0.2-1.4-0.7-1.4-1.5c0-0.9,0.8-1.5,2-1.5c1.2,0,2,0.6,2,1.5c0,0.7-0.6,1.3-1.4,1.5V261.4z M1285.8,257.5h-4.8v-0.9h1.8v-0.9
			h1.2v0.9h1.8V257.5z M1283.4,259.9c0.5,0,0.9-0.2,0.9-0.6c0-0.4-0.4-0.6-0.9-0.6c-0.5,0-0.9,0.2-0.9,0.6
			C1282.5,259.7,1282.9,259.9,1283.4,259.9z M1287.5,255.7v8h-1.1v-8H1287.5z"/>
		<path class="st1" d="M1291.8,257.5c0,1.4,0.6,2.9,1.9,3.5l-0.7,0.9c-0.8-0.4-1.4-1.2-1.7-2.2c-0.3,1-0.9,1.9-1.9,2.3l-0.7-0.9
			c1.4-0.6,2-2.2,2-3.7v-1.2h1.2V257.5z M1296.3,259.7h-1.2v4h-1.1v-8h1.1v3.1h1.2V259.7z"/>
		<path class="st1" d="M1303.4,255.8h1.1v7.5h-1.1v-3.8h-0.6c-0.1,1.6-0.8,2.5-1.7,2.5c-1.1,0-1.7-1.1-1.7-2.9
			c0-1.8,0.7-2.9,1.7-2.9c0.9,0,1.6,0.9,1.7,2.4h0.6V255.8z M1301.8,259.2c0-1.2-0.3-1.8-0.7-1.8c-0.4,0-0.7,0.6-0.7,1.8
			c0,1.2,0.3,1.8,0.7,1.8C1301.5,261,1301.8,260.4,1301.8,259.2z M1306.2,255.7v8h-1.1v-8H1306.2z"/>
		<path class="st1" d="M1314.6,261.8v0.9h-7.3v-0.9H1314.6z M1313.8,260.4c-1.4-0.3-2.4-1.1-2.9-2.1c-0.5,1-1.5,1.8-2.9,2.1l-0.5-1
			c1.8-0.3,2.8-1.6,2.8-2.7v-0.6h1.2v0.6c0,1.2,1,2.4,2.8,2.7L1313.8,260.4z"/>
		<path class="st1" d="M1319,258.5c-0.2,0.9-0.9,1.5-1.8,1.5c-1.1,0-1.8-0.8-1.8-1.9c0-1.1,0.8-1.9,1.8-1.9c0.9,0,1.6,0.6,1.8,1.4
			h0.5v-1.8h1.1v4.4h-1.1v-1.7H1319z M1317.2,259c0.5,0,0.8-0.4,0.8-1c0-0.6-0.3-1-0.8-1c-0.5,0-0.8,0.4-0.8,1
			C1316.4,258.6,1316.7,259,1317.2,259z M1316.7,260.6h5.4v3h-5.4V260.6z M1317.8,262.7h3.2v-1.2h-3.2V262.7z M1322.1,255.7v4.6
			h-1.1v-4.6H1322.1z"/>
		<path class="st1" d="M1324.9,256.3v1.9h1.7v-1.9h1.1v5.5h-4v-5.5H1324.9z M1324.9,260.9h1.7v-1.8h-1.7V260.9z M1330,255.7v8h-1.2
			v-8H1330z"/>
	</g>
	<g>
		<path class="st1" d="M1265.2,274.8h1.3v0.3h-0.9v6.1h0.9v0.3h-1.3V274.8z"/>
		<g>
			<path class="st1" d="M1268.2,278.1c0-1.6,0.5-2.5,1.5-2.5c0.9,0,1.5,0.9,1.5,2.5c0,1.6-0.5,2.6-1.5,2.6
				C1268.7,280.7,1268.2,279.7,1268.2,278.1z M1270.8,278.1c0-1.5-0.4-2.2-1.1-2.2c-0.7,0-1.1,0.7-1.1,2.2c0,1.5,0.4,2.2,1.1,2.2
				C1270.4,280.3,1270.8,279.6,1270.8,278.1z"/>
			<path class="st1" d="M1272,280l0.2-0.3c0.3,0.3,0.7,0.6,1.3,0.6c0.7,0,1.1-0.4,1.1-1.1c0-0.7-0.5-1.1-1.7-1.1v-0.3
				c1.1,0,1.5-0.5,1.5-1c0-0.5-0.4-0.9-1-0.9c-0.4,0-0.8,0.2-1.1,0.5l-0.2-0.3c0.3-0.3,0.8-0.6,1.4-0.6c0.8,0,1.4,0.4,1.4,1.2
				c0,0.6-0.4,1-0.9,1.2v0c0.6,0.1,1.1,0.6,1.1,1.3c0,0.9-0.7,1.4-1.5,1.4C1272.8,280.7,1272.4,280.3,1272,280z"/>
			<path class="st1" d="M1276.1,280.2l0.2-0.3c0.2,0.3,0.5,0.4,0.8,0.4c0.8,0,1.4-0.6,1.4-2.4c-0.3,0.4-0.8,0.7-1.2,0.7
				c-0.9,0-1.4-0.5-1.4-1.5c0-0.9,0.6-1.6,1.4-1.6c1,0,1.6,0.8,1.6,2.3c0,2-0.9,2.8-1.8,2.8C1276.7,280.7,1276.4,280.5,1276.1,280.2
				z M1277.4,278.3c0.3,0,0.8-0.2,1.2-0.7c-0.1-1-0.5-1.7-1.2-1.7c-0.6,0-1,0.5-1,1.2C1276.4,277.8,1276.7,278.3,1277.4,278.3z"/>
			<path class="st1" d="M1280.1,280.2h1.1v-4h-0.9V276c0.4-0.1,0.7-0.2,1-0.3h0.3v4.6h1.1v0.4h-2.6V280.2z"/>
			<path class="st1" d="M1284,280.2h1.1v-4h-0.9V276c0.4-0.1,0.7-0.2,1-0.3h0.3v4.6h1.1v0.4h-2.6V280.2z"/>
		</g>
		<path class="st1" d="M1288.6,281.2h0.9v-6.1h-0.9v-0.3h1.3v6.6h-1.3V281.2z"/>
	</g>
	<g>
		<path class="st1" d="M1301.9,276.5c0,1.1,0.9,2.2,1.7,2.6l-0.2,0.3c-0.7-0.4-1.4-1.2-1.6-2.1c-0.3,1-0.9,1.8-1.6,2.2l-0.2-0.3
			c0.8-0.4,1.7-1.6,1.7-2.7v-1.2h0.4V276.5z M1304.9,274.7v6.2h-0.4v-3.7h-1.6v-0.3h1.6v-2.2H1304.9z"/>
		<path class="st1" d="M1309.2,277.7v0.7h1.9v1.3h-3.8v0.8h4v0.3h-4.3v-1.4h3.8v-0.7h-3.8v-0.3h1.9v-0.7h-2.6v-0.3h5.6v0.3H1309.2z
			 M1306.9,275.8c0-0.7,0.8-1.1,2.1-1.1c1.3,0,2.1,0.4,2.1,1.1c0,0.7-0.8,1.1-2.1,1.1C1307.7,276.9,1306.9,276.5,1306.9,275.8z
			 M1307.3,275.8c0,0.5,0.7,0.8,1.8,0.8c1.1,0,1.8-0.3,1.8-0.8c0-0.5-0.7-0.8-1.8-0.8C1308,275,1307.3,275.3,1307.3,275.8z"/>
		<path class="st1" d="M1318.2,278v0.3h-5.6V278H1318.2z M1313.3,279h4.2v1.9h-0.4v-1.6h-3.9V279z M1317.5,277.3h-4.1v-2.4h4.1v0.3
			h-3.7v0.7h3.6v0.3h-3.6v0.8h3.8V277.3z"/>
		<path class="st1" d="M1322.1,277.6h-2.7V275h0.4v1h2v-1h0.4v0.6h1.6v-0.9h0.4v3.3h-0.4V277h-1.6V277.6z M1321.7,276.3h-2v1.1h2
			V276.3z M1324.4,280.4v0.3h-4.2v-1.4h3.5v-0.8h-3.6v-0.3h3.9v1.4h-3.5v0.8H1324.4z M1322.1,275.9v0.8h1.6v-0.8H1322.1z"/>
		<path class="st1" d="M1327.5,276.5c0,1.1,0.9,2.3,1.7,2.7l-0.2,0.3c-0.7-0.4-1.4-1.1-1.7-2.1c-0.3,1-1,1.8-1.7,2.2l-0.2-0.3
			c0.8-0.4,1.7-1.6,1.7-2.8v-1.2h0.4V276.5z M1330.5,274.7v6.2h-0.4v-6.2H1330.5z"/>
		<path class="st1" d="M1334.1,275.3h2.8v3.9h-2.8V275.3z M1334.5,278.9h2v-3.3h-2V278.9z M1339.6,277.5h-1.1v3.3h-0.4v-6.2h0.4v2.5
			h1.1V277.5z"/>
		<path class="st1" d="M1345.9,279.7v0.3h-5.6v-0.3h2.6v-1.6h-2.1v-0.3h1v-2.2h-1v-0.3h4.5v0.3h-1v2.2h1v0.3h-2.1v1.6H1345.9z
			 M1342.2,277.8h1.7v-2.2h-1.7V277.8z"/>
		<path class="st1" d="M1352.2,278.1h-2.6v2.8h-0.4v-2.8h-2.6v-0.3h4.2c0.2-0.9,0.2-1.6,0.2-2.1v-0.2h-3.7v-0.3h4.1v0.5
			c0,0.6,0,1.2-0.2,2.1h1V278.1z"/>
		<path class="st1" d="M1355.3,275.4h2.3v3.7h-2.3V275.4z M1355.6,278.8h1.6v-3.1h-1.6V278.8z M1360.2,274.7v6.2h-0.4v-3.4h-1v3
			h-0.4v-5.7h0.4v2.4h1v-2.5H1360.2z"/>
		<path class="st1" d="M1367,277.8v0.3h-5.6v-0.3h2.6v-0.8h-1.9v-2.2h0.4v0.8h3.4v-0.8h0.4v2.2h-1.9v0.8H1367z M1366.3,279.8
			c0,0.7-0.8,1.1-2.1,1.1c-1.3,0-2.1-0.4-2.1-1.1c0-0.7,0.8-1.1,2.1-1.1C1365.5,278.7,1366.3,279.1,1366.3,279.8z M1366,279.8
			c0-0.5-0.7-0.8-1.7-0.8s-1.7,0.3-1.7,0.8c0,0.5,0.7,0.8,1.7,0.8S1366,280.2,1366,279.8z M1362.6,276.7h3.4v-0.8h-3.4V276.7z"/>
		<path class="st1" d="M1371.2,278.2c-0.7-0.3-1.3-0.8-1.6-1.5c-0.3,0.8-0.8,1.4-1.6,1.7l-0.2-0.3c0.9-0.3,1.6-1.2,1.6-2.2V275h0.4
			v0.8c0,0.9,0.7,1.7,1.6,2L1371.2,278.2z M1369.2,280.4h3.7v0.3h-4.1v-1.9h0.4V280.4z M1373.6,276.6v0.3h-1v2.3h-0.4v-4.6h0.4v2
			H1373.6z"/>
		<path class="st1" d="M1379.9,279.7v0.3h-5.6v-0.3h2.6v-1.3h-1.9v-1.8h3.8v-1.1h-3.8v-0.3h4.2v1.8h-3.8v1.2h3.9v0.3h-2v1.3H1379.9z
			"/>
		<path class="st1" d="M1382.5,280h1.1v-4h-0.9v-0.3c0.4-0.1,0.7-0.2,1-0.3h0.3v4.6h1.1v0.4h-2.6V280z"/>
		<path class="st1" d="M1385.9,279.1c0-0.7,0.5-1.1,1-1.4v0c-0.4-0.2-0.7-0.6-0.7-1.1c0-0.7,0.6-1.2,1.3-1.2c0.8,0,1.3,0.6,1.3,1.3
			c0,0.5-0.4,1-0.7,1.2v0c0.4,0.3,0.9,0.6,0.9,1.3c0,0.7-0.6,1.3-1.5,1.3C1386.5,280.5,1385.9,279.9,1385.9,279.1z M1388.5,279.2
			c0-0.7-0.7-1-1.5-1.3c-0.5,0.3-0.8,0.7-0.8,1.2c0,0.6,0.5,1,1.2,1C1388.1,280.1,1388.5,279.7,1388.5,279.2z M1388.4,276.6
			c0-0.5-0.4-1-1-1c-0.5,0-0.9,0.4-0.9,0.9c0,0.7,0.6,1,1.3,1.2C1388.2,277.4,1388.4,277.1,1388.4,276.6z"/>
		<path class="st1" d="M1389.6,281.3c0.4-0.2,0.6-0.5,0.6-0.9c0,0-0.1,0-0.1,0c-0.2,0-0.4-0.1-0.4-0.4c0-0.2,0.2-0.3,0.4-0.3
			c0.3,0,0.4,0.2,0.4,0.6c0,0.6-0.3,1-0.8,1.3L1389.6,281.3z"/>
		<path class="st1" d="M1393.2,275.3h2.8v3.9h-2.8V275.3z M1393.6,278.9h2v-3.3h-2V278.9z M1398.7,277.5h-1.1v3.3h-0.4v-6.2h0.4v2.5
			h1.1V277.5z"/>
		<path class="st1" d="M1405,279.7v0.3h-5.6v-0.3h2.6v-1.6h-2.1v-0.3h1v-2.2h-1v-0.3h4.5v0.3h-1v2.2h1v0.3h-2.1v1.6H1405z
			 M1401.3,277.8h1.7v-2.2h-1.7V277.8z"/>
		<path class="st1" d="M1406.5,275.2v1.7h2.1v-1.7h0.4v4.1h-2.8v-4.1H1406.5z M1406.5,279h2.1v-1.8h-2.1V279z M1410.8,274.7v6.2
			h-0.4v-6.2H1410.8z"/>
		<path class="st1" d="M1417.8,279.7v0.3h-5.6v-0.3H1417.8z M1412.5,278.2c0.9-0.2,2.3-1,2.3-2.1v-0.4h-2.2v-0.3h4.7v0.3h-2.2v0.4
			c0,1.1,1.4,1.9,2.3,2.1l-0.2,0.3c-0.8-0.2-2-0.8-2.4-1.7c-0.4,0.9-1.5,1.6-2.3,1.8L1412.5,278.2z"/>
		<path class="st1" d="M1424.2,277.5v0.3h-5.6v-0.3H1424.2z M1420.2,275.2h-1v-0.3h4.5v0.3h-1v1.4h1v0.3h-4.5v-0.3h1V275.2z
			 M1419.7,280.5h4v0.3h-4.3v-1.3h3.8v-0.7h-3.8v-0.3h4.2v1.2h-3.8V280.5z M1422.2,275.2h-1.7v1.4h1.7V275.2z"/>
		<path class="st1" d="M1425.7,279c1.2,0,2,0,3-0.2l0,0.3c-1,0.2-1.8,0.2-3,0.2h-0.5v-2.3h2.4v-1.5h-2.4v-0.3h2.8v2.1h-2.4v1.6
			H1425.7z M1430.8,277.5h-1.1v3.3h-0.4v-6.2h0.4v2.5h1.1V277.5z"/>
		<path class="st1" d="M1433.4,276.7c0,1,0.8,2.1,1.6,2.5l-0.2,0.3c-0.7-0.4-1.3-1.1-1.6-2c-0.3,0.9-1,1.8-1.6,2.2l-0.2-0.3
			c0.8-0.4,1.7-1.6,1.7-2.7v-1h-1.5v-0.3h3.3v0.3h-1.5V276.7z M1437.2,277.6h-1.1v3.3h-0.4v-6.2h0.4v2.6h1.1V277.6z"/>
		<path class="st1" d="M1440.9,278.1c0-2,0.9-2.8,1.8-2.8c0.5,0,0.8,0.2,1.1,0.5l-0.2,0.3c-0.2-0.3-0.5-0.4-0.8-0.4
			c-0.8,0-1.4,0.6-1.4,2.3c0.3-0.4,0.8-0.7,1.2-0.7c0.9,0,1.4,0.5,1.4,1.5c0,0.9-0.6,1.6-1.4,1.6
			C1441.6,280.5,1440.9,279.6,1440.9,278.1z M1441.3,278.4c0.1,1,0.5,1.7,1.2,1.7c0.6,0,1-0.5,1-1.2c0-0.7-0.3-1.2-1-1.2
			C1442.2,277.7,1441.7,277.9,1441.3,278.4z"/>
		<path class="st1" d="M1444.6,277.9c0-1.6,0.5-2.5,1.5-2.5c0.9,0,1.5,0.9,1.5,2.5c0,1.6-0.5,2.6-1.5,2.6
			C1445.2,280.5,1444.6,279.5,1444.6,277.9z M1447.2,277.9c0-1.5-0.4-2.2-1.1-2.2c-0.7,0-1.1,0.7-1.1,2.2s0.4,2.2,1.1,2.2
			C1446.8,280.1,1447.2,279.4,1447.2,277.9z"/>
		<path class="st1" d="M1448.3,280.1c1.6-1.6,2.4-2.5,2.4-3.4c0-0.6-0.3-1.1-1-1.1c-0.4,0-0.8,0.3-1.1,0.6l-0.3-0.2
			c0.4-0.4,0.8-0.7,1.4-0.7c0.9,0,1.4,0.6,1.4,1.4c0,1-0.9,1.9-2.2,3.3c0.3,0,0.6,0,0.8,0h1.6v0.4h-3.1V280.1z"/>
		<path class="st1" d="M1452,278.3h1.7v0.3h-1.7V278.3z"/>
		<path class="st1" d="M1454.4,277.9c0-1.6,0.5-2.5,1.5-2.5c0.9,0,1.5,0.9,1.5,2.5c0,1.6-0.5,2.6-1.5,2.6
			C1455,280.5,1454.4,279.5,1454.4,277.9z M1457,277.9c0-1.5-0.4-2.2-1.1-2.2c-0.7,0-1.1,0.7-1.1,2.2s0.4,2.2,1.1,2.2
			C1456.6,280.1,1457,279.4,1457,277.9z"/>
		<path class="st1" d="M1460.7,275.8h-2.6v-0.4h3.1v0.3c-1.2,1.5-1.5,2.8-1.5,4.7h-0.4C1459.3,278.4,1459.7,277.2,1460.7,275.8z"/>
		<path class="st1" d="M1467.5,279.8v0.3h-5.6v-0.3h2.6v-1c-1.1,0-1.8-0.5-1.8-1.2c0-0.7,0.8-1.2,2-1.2c1.2,0,2,0.4,2,1.2
			c0,0.7-0.7,1.1-1.8,1.2v1H1467.5z M1467.2,276h-5v-0.3h2.3v-0.9h0.4v0.9h2.3V276z M1464.7,278.5c1,0,1.6-0.3,1.6-0.9
			c0-0.5-0.6-0.8-1.6-0.8c-1,0-1.6,0.3-1.6,0.8C1463.1,278.2,1463.7,278.5,1464.7,278.5z"/>
	</g>
	<g>
		<path class="st1" d="M1265.2,283.5h1.3v0.3h-0.9v6.1h0.9v0.3h-1.3V283.5z"/>
		<g>
			<path class="st1" d="M1268,284.5h2.8v0.4h-2.4v1.9h2v0.4h-2v2.2h2.5v0.4h-2.9V284.5z"/>
			<path class="st1" d="M1271.6,287.4h1.7v0.3h-1.7V287.4z"/>
			<path class="st1" d="M1274.3,285.8h0.3l0,0.6h0c0.3-0.4,0.8-0.7,1.2-0.7c0.6,0,0.9,0.3,1,0.8c0.4-0.5,0.8-0.8,1.3-0.8
				c0.7,0,1.1,0.5,1.1,1.4v2.4h-0.4v-2.3c0-0.8-0.3-1.1-0.8-1.1c-0.3,0-0.7,0.2-1.1,0.7v2.8h-0.4v-2.3c0-0.8-0.3-1.1-0.8-1.1
				c-0.3,0-0.7,0.2-1.1,0.7v2.8h-0.4V285.8z"/>
			<path class="st1" d="M1280.4,288.6c0-0.8,0.7-1.2,2.4-1.4c0-0.6-0.1-1.1-0.8-1.1c-0.5,0-0.9,0.2-1.2,0.4l-0.2-0.3
				c0.3-0.2,0.8-0.5,1.4-0.5c0.9,0,1.2,0.6,1.2,1.5v2.4h-0.3l0-0.5h0c-0.4,0.3-0.8,0.6-1.3,0.6
				C1280.8,289.6,1280.4,289.3,1280.4,288.6z M1282.7,288.7v-1.2c-1.5,0.2-2,0.5-2,1.1c0,0.5,0.3,0.7,0.8,0.7
				C1281.9,289.3,1282.3,289.1,1282.7,288.7z"/>
			<path class="st1" d="M1284.3,284.6c0-0.2,0.1-0.3,0.3-0.3c0.2,0,0.3,0.1,0.3,0.3c0,0.2-0.1,0.3-0.3,0.3
				C1284.4,285,1284.3,284.8,1284.3,284.6z M1284.4,285.8h0.4v3.7h-0.4V285.8z"/>
			<path class="st1" d="M1286.2,289v-5h0.4v5c0,0.2,0.1,0.3,0.2,0.3c0,0,0.1,0,0.1,0l0.1,0.3c-0.1,0-0.1,0-0.3,0
				C1286.4,289.6,1286.2,289.4,1286.2,289z"/>
		</g>
		<path class="st1" d="M1288.6,289.9h0.9v-6.1h-0.9v-0.3h1.3v6.6h-1.3V289.9z"/>
	</g>
	<g>
		<path class="st1" d="M1299.9,288.6l0.2-0.3c0.3,0.3,0.7,0.5,1.2,0.5c0.6,0,0.8-0.3,0.8-0.7c0-0.4-0.5-0.6-0.9-0.8
			c-0.6-0.2-1.1-0.4-1.1-1.1c0-0.5,0.4-1,1.2-1c0.4,0,0.8,0.2,1.1,0.4l-0.2,0.3c-0.3-0.2-0.5-0.3-0.9-0.3c-0.6,0-0.8,0.3-0.8,0.6
			c0,0.4,0.4,0.6,0.8,0.7c0.6,0.2,1.2,0.4,1.2,1.1c0,0.6-0.5,1.1-1.3,1.1C1300.7,289.1,1300.2,288.9,1299.9,288.6z"/>
		<path class="st1" d="M1303.5,285.3h0.3l0,0.6h0c0.3-0.4,0.8-0.7,1.2-0.7c0.6,0,0.9,0.3,1,0.8c0.4-0.5,0.8-0.8,1.3-0.8
			c0.7,0,1.1,0.5,1.1,1.4v2.4h-0.4v-2.3c0-0.8-0.3-1.1-0.8-1.1c-0.3,0-0.7,0.2-1.1,0.7v2.8h-0.4v-2.3c0-0.8-0.3-1.1-0.8-1.1
			c-0.3,0-0.7,0.2-1.1,0.7v2.8h-0.4V285.3z"/>
		<path class="st1" d="M1309.6,284.1c0-0.2,0.1-0.3,0.3-0.3c0.2,0,0.3,0.1,0.3,0.3c0,0.2-0.1,0.3-0.3,0.3
			C1309.8,284.4,1309.6,284.3,1309.6,284.1z M1309.8,285.3h0.4v3.7h-0.4V285.3z"/>
		<path class="st1" d="M1311.6,288.5v-5h0.4v5c0,0.2,0.1,0.3,0.2,0.3c0,0,0.1,0,0.1,0l0.1,0.3c-0.1,0-0.1,0-0.3,0
			C1311.7,289.1,1311.6,288.9,1311.6,288.5z"/>
		<path class="st1" d="M1313.1,287.2c0-1.2,0.8-2,1.6-2c0.9,0,1.4,0.6,1.4,1.7c0,0.1,0,0.2,0,0.3h-2.6c0,0.9,0.6,1.5,1.4,1.5
			c0.4,0,0.7-0.1,1-0.3l0.2,0.3c-0.3,0.2-0.6,0.4-1.2,0.4C1313.9,289.1,1313.1,288.4,1313.1,287.2z M1315.8,286.9
			c0-0.9-0.4-1.4-1.1-1.4c-0.6,0-1.1,0.5-1.2,1.4H1315.8z"/>
		<path class="st1" d="M1316.9,287.5c0-2,1.5-3.4,3.1-3.4c1.5,0,2.4,1,2.4,2.5c0,1.3-0.8,2-1.4,2c-0.4,0-0.7-0.2-0.8-0.6h0
			c-0.3,0.3-0.6,0.5-0.9,0.5c-0.5,0-0.9-0.4-0.9-1.1c0-0.8,0.5-1.7,1.4-1.7c0.3,0,0.5,0.1,0.6,0.4h0l0.1-0.3h0.3l-0.3,1.5
			c-0.2,0.7,0,1,0.5,1c0.5,0,1.1-0.6,1.1-1.7c0-1.3-0.8-2.2-2.1-2.2c-1.4,0-2.7,1.2-2.7,3c0,1.5,0.9,2.4,2.3,2.4
			c0.5,0,0.9-0.1,1.3-0.4l0.1,0.3c-0.4,0.3-0.9,0.4-1.4,0.4C1318,290.1,1316.9,289.2,1316.9,287.5z M1320.1,287.7l0.2-1.3
			c-0.2-0.3-0.3-0.4-0.6-0.4c-0.7,0-1.1,0.8-1.1,1.4c0,0.6,0.3,0.8,0.6,0.8C1319.6,288.2,1319.8,288.1,1320.1,287.7z"/>
		<path class="st1" d="M1323.1,288.6l0.2-0.3c0.3,0.3,0.7,0.5,1.2,0.5c0.6,0,0.8-0.3,0.8-0.7c0-0.4-0.5-0.6-0.9-0.8
			c-0.6-0.2-1.1-0.4-1.1-1.1c0-0.5,0.4-1,1.2-1c0.4,0,0.8,0.2,1.1,0.4l-0.2,0.3c-0.3-0.2-0.5-0.3-0.9-0.3c-0.6,0-0.8,0.3-0.8,0.6
			c0,0.4,0.4,0.6,0.8,0.7c0.6,0.2,1.2,0.4,1.2,1.1c0,0.6-0.5,1.1-1.3,1.1C1323.9,289.1,1323.4,288.9,1323.1,288.6z"/>
		<path class="st1" d="M1326.6,288v-2.3h-0.6v-0.3l0.6,0l0-1.1h0.3v1.1h1.1v0.3h-1.1v2.3c0,0.5,0.1,0.8,0.6,0.8c0.1,0,0.3,0,0.5-0.1
			l0.1,0.3c-0.2,0.1-0.5,0.1-0.6,0.1C1326.8,289.1,1326.6,288.6,1326.6,288z"/>
		<path class="st1" d="M1329,285.3h0.3l0,0.6h0c0.3-0.4,0.8-0.7,1.2-0.7c0.6,0,0.9,0.3,1,0.8c0.4-0.5,0.8-0.8,1.3-0.8
			c0.7,0,1.1,0.5,1.1,1.4v2.4h-0.4v-2.3c0-0.8-0.3-1.1-0.8-1.1c-0.3,0-0.7,0.2-1.1,0.7v2.8h-0.4v-2.3c0-0.8-0.3-1.1-0.8-1.1
			c-0.3,0-0.7,0.2-1.1,0.7v2.8h-0.4V285.3z"/>
		<path class="st1" d="M1334.6,285.3h0.4l0.8,2.3c0.1,0.4,0.2,0.7,0.4,1.1h0c0.1-0.3,0.3-0.7,0.4-1.1l0.8-2.3h0.4l-1.4,3.7h-0.5
			L1334.6,285.3z"/>
		<path class="st1" d="M1338.7,285.3h0.3l0,0.6h0c0.3-0.4,0.8-0.7,1.2-0.7c0.6,0,0.9,0.3,1,0.8c0.4-0.5,0.8-0.8,1.3-0.8
			c0.7,0,1.1,0.5,1.1,1.4v2.4h-0.4v-2.3c0-0.8-0.3-1.1-0.8-1.1c-0.3,0-0.7,0.2-1.1,0.7v2.8h-0.4v-2.3c0-0.8-0.3-1.1-0.8-1.1
			c-0.3,0-0.7,0.2-1.1,0.7v2.8h-0.4V285.3z"/>
		<path class="st1" d="M1344.8,288.7c0-0.2,0.2-0.4,0.4-0.4c0.2,0,0.4,0.1,0.4,0.4c0,0.2-0.2,0.4-0.4,0.4
			C1344.9,289.1,1344.8,289,1344.8,288.7z"/>
		<path class="st1" d="M1346.3,287.2c0-1.2,0.8-2,1.7-2c0.5,0,0.8,0.2,1.1,0.5l-0.2,0.3c-0.2-0.2-0.5-0.4-0.9-0.4
			c-0.7,0-1.3,0.7-1.3,1.6c0,0.9,0.5,1.6,1.3,1.6c0.4,0,0.7-0.2,1-0.4l0.2,0.3c-0.3,0.3-0.7,0.5-1.2,0.5
			C1347,289.1,1346.3,288.4,1346.3,287.2z"/>
		<path class="st1" d="M1349.6,287.2c0-1.2,0.8-2,1.7-2c0.9,0,1.7,0.7,1.7,2c0,1.2-0.8,1.9-1.7,1.9
			C1350.4,289.1,1349.6,288.4,1349.6,287.2z M1352.6,287.2c0-0.9-0.5-1.6-1.3-1.6c-0.7,0-1.3,0.7-1.3,1.6c0,0.9,0.5,1.6,1.3,1.6
			C1352,288.8,1352.6,288.1,1352.6,287.2z"/>
		<path class="st1" d="M1354.1,285.3h0.3l0,0.6h0c0.3-0.4,0.8-0.7,1.2-0.7c0.6,0,0.9,0.3,1,0.8c0.4-0.5,0.8-0.8,1.3-0.8
			c0.7,0,1.1,0.5,1.1,1.4v2.4h-0.4v-2.3c0-0.8-0.3-1.1-0.8-1.1c-0.3,0-0.7,0.2-1.1,0.7v2.8h-0.4v-2.3c0-0.8-0.3-1.1-0.8-1.1
			c-0.3,0-0.7,0.2-1.1,0.7v2.8h-0.4V285.3z"/>
	</g>
	<g>
		<path class="st1" d="M1264.8,298.7c0-1.7,1-2.7,2.3-2.7c0.6,0,1.1,0.3,1.4,0.6l-0.3,0.4c-0.3-0.3-0.6-0.5-1-0.5
			c-1,0-1.6,0.8-1.6,2.1c0,1.3,0.6,2.1,1.6,2.1c0.5,0,0.9-0.2,1.2-0.6l0.4,0.4c-0.4,0.5-0.9,0.7-1.6,0.7
			C1265.8,301.4,1264.8,300.4,1264.8,298.7z"/>
		<path class="st1" d="M1269,298.7c0-1.6,0.9-2.6,2.2-2.6s2.2,1,2.2,2.6c0,1.6-0.9,2.7-2.2,2.7S1269,300.3,1269,298.7z
			 M1272.7,298.7c0-1.3-0.6-2.1-1.5-2.1c-0.9,0-1.5,0.8-1.5,2.1c0,1.3,0.6,2.1,1.5,2.1C1272.1,300.8,1272.7,300,1272.7,298.7z"/>
		<path class="st1" d="M1274.5,296.2h1.5c1.1,0,1.9,0.4,1.9,1.5c0,1.1-0.8,1.6-1.9,1.6h-0.8v2h-0.6V296.2z M1275.9,298.7
			c0.9,0,1.3-0.3,1.3-1.1c0-0.7-0.5-1-1.4-1h-0.7v2H1275.9z"/>
		<path class="st1" d="M1279.7,299.3l-1.5-3.1h0.7l0.7,1.4c0.2,0.4,0.3,0.7,0.5,1.1h0c0.2-0.4,0.4-0.7,0.5-1.1l0.7-1.4h0.7l-1.5,3.1
			v2h-0.6V299.3z"/>
		<path class="st1" d="M1282.5,296.2h1.6c1,0,1.8,0.4,1.8,1.4c0,0.8-0.5,1.3-1.2,1.4l1.3,2.2h-0.7l-1.2-2.2h-0.9v2.2h-0.6V296.2z
			 M1284,298.6c0.8,0,1.2-0.3,1.2-1c0-0.7-0.4-0.9-1.2-0.9h-0.9v1.9H1284z"/>
		<path class="st1" d="M1287,296.2h0.6v5.1h-0.6V296.2z"/>
		<path class="st1" d="M1288.7,298.7c0-1.7,1-2.7,2.3-2.7c0.7,0,1.2,0.3,1.5,0.6l-0.3,0.4c-0.3-0.3-0.6-0.5-1.1-0.5
			c-1,0-1.7,0.8-1.7,2.1c0,1.3,0.6,2.1,1.7,2.1c0.4,0,0.7-0.1,0.9-0.3v-1.3h-1.1v-0.5h1.7v2.1c-0.3,0.3-0.9,0.6-1.6,0.6
			C1289.7,301.4,1288.7,300.4,1288.7,298.7z"/>
		<path class="st1" d="M1293.8,296.2h0.6v2.1h2.4v-2.1h0.6v5.1h-0.6v-2.4h-2.4v2.4h-0.6V296.2z"/>
		<path class="st1" d="M1299.9,296.7h-1.5v-0.6h3.7v0.6h-1.5v4.6h-0.6V296.7z"/>
		<path class="st1" d="M1305.9,298.8c0-1.6,1.2-2.6,2.5-2.6c1.4,0,2.5,1,2.5,2.6c0,1.6-1.2,2.6-2.5,2.6
			C1307,301.4,1305.9,300.4,1305.9,298.8z M1310.5,298.8c0-1.4-1-2.2-2.2-2.2c-1.2,0-2.2,0.9-2.2,2.2c0,1.4,1,2.3,2.2,2.3
			C1309.5,301,1310.5,300.1,1310.5,298.8z M1307,298.8c0-0.9,0.7-1.5,1.4-1.5c0.4,0,0.7,0.2,1,0.4l-0.3,0.3
			c-0.2-0.2-0.4-0.3-0.7-0.3c-0.6,0-0.9,0.4-0.9,1c0,0.7,0.4,1.1,0.9,1.1c0.3,0,0.6-0.2,0.8-0.3l0.2,0.3c-0.3,0.3-0.6,0.4-1.1,0.4
			C1307.6,300.3,1307,299.7,1307,298.8z"/>
		<path class="st1" d="M1314.7,300.6l0.4-0.4c0.4,0.4,0.9,0.6,1.4,0.6c0.7,0,1.1-0.3,1.1-0.8c0-0.5-0.4-0.7-0.8-0.9l-0.7-0.3
			c-0.5-0.2-1-0.6-1-1.3c0-0.8,0.7-1.4,1.6-1.4c0.6,0,1.1,0.3,1.5,0.6l-0.3,0.4c-0.3-0.3-0.7-0.5-1.2-0.5c-0.6,0-1,0.3-1,0.8
			c0,0.5,0.4,0.7,0.8,0.8l0.7,0.3c0.6,0.3,1.1,0.6,1.1,1.4c0,0.8-0.7,1.4-1.7,1.4C1315.8,301.4,1315.2,301.1,1314.7,300.6z"/>
		<path class="st1" d="M1319.3,296.2h0.8l1,2.7c0.1,0.4,0.2,0.7,0.4,1.1h0c0.1-0.4,0.2-0.7,0.3-1.1l1-2.7h0.8v5.1h-0.6v-2.8
			c0-0.4,0-1.1,0.1-1.5h0l-0.4,1.2l-1,2.7h-0.4l-1-2.7l-0.4-1.2h0c0,0.4,0.1,1.1,0.1,1.5v2.8h-0.6V296.2z"/>
		<path class="st1" d="M1324.9,296.2h1.5c1,0,1.8,0.4,1.8,1.3c0,0.5-0.3,1-0.7,1.1v0c0.6,0.1,1,0.5,1,1.2c0,1-0.8,1.5-1.9,1.5h-1.6
			V296.2z M1326.3,298.3c0.9,0,1.2-0.3,1.2-0.8c0-0.6-0.4-0.8-1.2-0.8h-0.8v1.7H1326.3z M1326.4,300.8c0.9,0,1.4-0.3,1.4-1
			c0-0.6-0.5-0.9-1.4-0.9h-0.9v1.9H1326.4z"/>
		<path class="st1" d="M1330.8,298.7c0-1.7,1-2.7,2.3-2.7c0.6,0,1.1,0.3,1.4,0.6l-0.3,0.4c-0.3-0.3-0.6-0.5-1-0.5
			c-1,0-1.6,0.8-1.6,2.1c0,1.3,0.6,2.1,1.6,2.1c0.5,0,0.9-0.2,1.2-0.6l0.4,0.4c-0.4,0.5-0.9,0.7-1.6,0.7
			C1331.7,301.4,1330.8,300.4,1330.8,298.7z"/>
		<path class="st1" d="M1335.2,299.4c0-1.3,0.8-2,1.8-2c0.9,0,1.8,0.7,1.8,2c0,1.3-0.8,2-1.8,2
			C1336,301.4,1335.2,300.6,1335.2,299.4z M1338,299.4c0-0.9-0.4-1.5-1.1-1.5c-0.7,0-1.1,0.6-1.1,1.5c0,0.9,0.4,1.4,1.1,1.4
			C1337.6,300.8,1338,300.3,1338,299.4z"/>
		<path class="st1" d="M1339.5,300.9c0-0.3,0.2-0.5,0.5-0.5c0.3,0,0.5,0.2,0.5,0.5c0,0.3-0.2,0.5-0.5,0.5
			C1339.7,301.4,1339.5,301.2,1339.5,300.9z"/>
		<path class="st1" d="M1341.3,302.2c0.4-0.2,0.7-0.5,0.7-0.9c0,0,0,0-0.1,0c-0.2,0-0.5-0.2-0.5-0.4c0-0.3,0.2-0.4,0.5-0.4
			c0.3,0,0.5,0.3,0.5,0.8c0,0.7-0.4,1.2-1,1.5L1341.3,302.2z"/>
		<path class="st1" d="M1345.1,296.2h0.6v4.6h2.2v0.6h-2.9V296.2z"/>
		<path class="st1" d="M1348.8,300.1V298h-0.6v-0.5l0.6,0l0.1-1.1h0.5v1.1h1v0.5h-1v2.1c0,0.5,0.1,0.7,0.6,0.7c0.1,0,0.3,0,0.4-0.1
			l0.1,0.5c-0.2,0.1-0.5,0.1-0.7,0.1C1349,301.4,1348.8,300.9,1348.8,300.1z"/>
		<path class="st1" d="M1350.9,299.4c0-1.2,0.8-2,1.6-2c0.4,0,0.7,0.2,1.1,0.4l0-0.7v-1.5h0.6v5.5h-0.5l-0.1-0.4h0
			c-0.3,0.3-0.7,0.5-1.1,0.5C1351.5,301.4,1350.9,300.7,1350.9,299.4z M1353.6,300.3v-2c-0.3-0.3-0.6-0.4-0.9-0.4
			c-0.6,0-1.1,0.6-1.1,1.4c0,0.9,0.4,1.5,1,1.5C1353,300.8,1353.3,300.7,1353.6,300.3z"/>
		<path class="st1" d="M1355.4,300.9c0-0.3,0.2-0.5,0.5-0.5c0.3,0,0.5,0.2,0.5,0.5c0,0.3-0.2,0.5-0.5,0.5
			C1355.6,301.4,1355.4,301.2,1355.4,300.9z"/>
		<path class="st1" d="M1363.2,296.2h0.7l1.7,5.1h-0.7l-0.5-1.6h-1.9l-0.5,1.6h-0.7L1363.2,296.2z M1362.8,299.2h1.5l-0.2-0.8
			c-0.2-0.6-0.3-1.1-0.5-1.7h0c-0.2,0.6-0.3,1.1-0.5,1.7L1362.8,299.2z"/>
		<path class="st1" d="M1366.4,296.2h0.6v4.6h2.2v0.6h-2.9V296.2z"/>
		<path class="st1" d="M1370.2,296.2h0.6v4.6h2.2v0.6h-2.9V296.2z"/>
		<path class="st1" d="M1375.5,296.2h1.6c1,0,1.8,0.4,1.8,1.4c0,0.8-0.5,1.3-1.2,1.4l1.3,2.2h-0.7l-1.2-2.2h-0.9v2.2h-0.6V296.2z
			 M1377,298.6c0.8,0,1.2-0.3,1.2-1c0-0.7-0.4-0.9-1.2-0.9h-0.9v1.9H1377z"/>
		<path class="st1" d="M1380,296.2h0.6v5.1h-0.6V296.2z"/>
		<path class="st1" d="M1381.7,298.7c0-1.7,1-2.7,2.3-2.7c0.7,0,1.2,0.3,1.5,0.6l-0.3,0.4c-0.3-0.3-0.6-0.5-1.1-0.5
			c-1,0-1.7,0.8-1.7,2.1c0,1.3,0.6,2.1,1.7,2.1c0.4,0,0.7-0.1,0.9-0.3v-1.3h-1.1v-0.5h1.7v2.1c-0.3,0.3-0.9,0.6-1.6,0.6
			C1382.7,301.4,1381.7,300.4,1381.7,298.7z"/>
		<path class="st1" d="M1386.8,296.2h0.6v2.1h2.4v-2.1h0.6v5.1h-0.6v-2.4h-2.4v2.4h-0.6V296.2z"/>
		<path class="st1" d="M1392.9,296.7h-1.5v-0.6h3.7v0.6h-1.5v4.6h-0.6V296.7z"/>
		<path class="st1" d="M1395.4,300.6l0.4-0.4c0.4,0.4,0.9,0.6,1.4,0.6c0.7,0,1.1-0.3,1.1-0.8c0-0.5-0.4-0.7-0.8-0.9l-0.7-0.3
			c-0.5-0.2-1-0.6-1-1.3c0-0.8,0.7-1.4,1.6-1.4c0.6,0,1.1,0.3,1.5,0.6l-0.3,0.4c-0.3-0.3-0.7-0.5-1.2-0.5c-0.6,0-1,0.3-1,0.8
			c0,0.5,0.4,0.7,0.8,0.8l0.7,0.3c0.6,0.3,1.1,0.6,1.1,1.4c0,0.8-0.7,1.4-1.7,1.4C1396.4,301.4,1395.8,301.1,1395.4,300.6z"/>
		<path class="st1" d="M1401.5,296.2h1.6c1,0,1.8,0.4,1.8,1.4c0,0.8-0.5,1.3-1.2,1.4l1.3,2.2h-0.7l-1.2-2.2h-0.9v2.2h-0.6V296.2z
			 M1403,298.6c0.8,0,1.2-0.3,1.2-1c0-0.7-0.4-0.9-1.2-0.9h-0.9v1.9H1403z"/>
		<path class="st1" d="M1405.9,296.2h2.9v0.6h-2.3v1.6h1.9v0.6h-1.9v1.9h2.4v0.6h-3V296.2z"/>
		<path class="st1" d="M1409.6,300.6l0.4-0.4c0.4,0.4,0.9,0.6,1.4,0.6c0.7,0,1.1-0.3,1.1-0.8c0-0.5-0.4-0.7-0.8-0.9l-0.7-0.3
			c-0.5-0.2-1-0.6-1-1.3c0-0.8,0.7-1.4,1.6-1.4c0.6,0,1.1,0.3,1.5,0.6l-0.3,0.4c-0.3-0.3-0.7-0.5-1.2-0.5c-0.6,0-1,0.3-1,0.8
			c0,0.5,0.4,0.7,0.8,0.8l0.7,0.3c0.6,0.3,1.1,0.6,1.1,1.4c0,0.8-0.7,1.4-1.7,1.4C1410.7,301.4,1410.1,301.1,1409.6,300.6z"/>
		<path class="st1" d="M1414.2,296.2h2.9v0.6h-2.3v1.6h1.9v0.6h-1.9v1.9h2.4v0.6h-3V296.2z"/>
		<path class="st1" d="M1418.3,296.2h1.6c1,0,1.8,0.4,1.8,1.4c0,0.8-0.5,1.3-1.2,1.4l1.3,2.2h-0.7l-1.2-2.2h-0.9v2.2h-0.6V296.2z
			 M1419.8,298.6c0.8,0,1.2-0.3,1.2-1c0-0.7-0.4-0.9-1.2-0.9h-0.9v1.9H1419.8z"/>
		<path class="st1" d="M1422,296.2h0.7l0.8,2.8c0.2,0.6,0.3,1.1,0.5,1.7h0c0.2-0.6,0.3-1.1,0.5-1.7l0.8-2.8h0.7l-1.6,5.1h-0.7
			L1422,296.2z"/>
		<path class="st1" d="M1426.7,296.2h2.9v0.6h-2.3v1.6h1.9v0.6h-1.9v1.9h2.4v0.6h-3V296.2z"/>
		<path class="st1" d="M1430.8,296.2h1.3c1.6,0,2.4,0.9,2.4,2.5c0,1.6-0.8,2.6-2.4,2.6h-1.3V296.2z M1432.1,300.7
			c1.2,0,1.8-0.8,1.8-2c0-1.3-0.6-2-1.8-2h-0.6v4.1H1432.1z"/>
		<path class="st1" d="M1435.4,300.9c0-0.3,0.2-0.5,0.5-0.5c0.3,0,0.5,0.2,0.5,0.5c0,0.3-0.2,0.5-0.5,0.5
			C1435.6,301.4,1435.4,301.2,1435.4,300.9z"/>
	</g>
</g>
<text transform="matrix(1 0 0 1 1467.1204 679.4266)" class="st1" style="font-family:'NotoSansKR-Bold-KSCpc-EUC-H'; font-size:15px;">주식회사 에스엠비</text>
<text transform="matrix(1 0 0 1 1467.1204 709.4266)" class="st1" style="font-family:'NotoSansKR-Light-KSCpc-EUC-H'; font-size:12px;">[03911]       서울특별시 마포구 매봉산로 18, 마포비즈플라자  602-07호</text>
<text transform="matrix(1 0 0 1 1467.1204 724.4266)" class="st1" style="font-family:'NotoSansKR-Light-KSCpc-EUC-H'; font-size:12px;">[E-mail]       smile@stmvm.com</text>
<text transform="matrix(1 0 0 1 1467.1204 745.4266)" class="st1" style="font-family:'NotoSansKR-Regular-KSCpc-EUC-H'; font-size:12px;">COPYRIGHT  ©  SMB Co., Ltd.   ALL RIGHTS RESERVED.</text>
<g>
	<g>
		<g>
			<g>
				<g>
					<g>
						<polygon class="st0" points="483.6,120.2 503.2,146.9 505.1,146.9 484,119.9 						"/>
						<polygon class="st0" points="480.4,120.2 500,146.9 501.9,146.9 480.8,119.9 						"/>
					</g>
					<path class="st0" d="M484.9,113.7c-0.3-2.8-3.7-5-8-5c-4.3,0-7.8,2.2-8,5l-24,32.4l-0.7,0.9h2.9l22.6-30.6l1.7-2.2l0.1-0.1
						c0,0,0,0,0,0c0,0,0-0.1,0-0.1c0.2-1.3,2.4-2.6,5.5-2.6c3,0,5.3,1.3,5.5,2.6c0,0,0,0.1,0,0.1c0,0,0,0,0,0l1.8,2.4l22.5,30.3
						l0.2,0.2h2.9L484.9,113.7z"/>
					<path class="st0" d="M472.1,120.3c0,0-0.1,0.2-0.1,0.2c-5.1,10.1-11.9,19.6-21,26.5h2.4c8.2-7.1,14.4-16.4,19-26.3
						c0,0,0.1-0.2,0.1-0.2L472.1,120.3z"/>
					<path class="st0" d="M469.4,119.6c0,0-0.1,0.2-0.1,0.2c-6,9.8-13.3,18.8-21.2,27.2h2.1c7.3-8.4,14-17.3,19.5-26.9
						c0,0,0.1-0.2,0.1-0.2C469.8,119.8,469.4,119.6,469.4,119.6z"/>
					<path class="st0" d="M476.5,118.7c0,0-1.1,0.7-1.7,2.1c-2.7,6-8.5,20.5-20.3,26.1h2.8c9.9-5.9,15.1-17.4,17.9-23.8v0
						c0,0,0.7-1.4,1.1-2.1l20.1,25.8l0.1,0.1h2L476.5,118.7z"/>
				</g>
				<g>
					<path class="st0" d="M534.5,128.9c-0.6-0.1-1.2-0.2-1.8-0.3c-0.6-0.1-1.2-0.3-1.7-0.5c-0.5-0.2-1-0.5-1.4-0.8
						c-0.4-0.3-0.8-0.7-1.1-1.2c-0.3,0.5-0.8,0.9-1.3,1.2c-0.5,0.3-1.1,0.6-1.6,0.8c-0.6,0.2-1.2,0.4-1.7,0.5
						c-0.6,0.1-1.1,0.2-1.5,0.3v-4.4c0.4-0.1,0.9-0.1,1.3-0.2c0.4-0.1,0.9-0.3,1.2-0.6c0.4-0.3,0.7-0.7,0.9-1.3
						c0.2-0.6,0.3-1.4,0.3-2.4v-3.8h4.8v3.8c0,1,0.1,1.8,0.3,2.4c0.2,0.6,0.4,1,0.8,1.3c0.3,0.3,0.7,0.5,1.1,0.6s0.9,0.2,1.4,0.2
						V128.9z M540.6,139.6c0.7,0,1.3-0.1,1.9-0.4c0.5-0.2,1-0.6,1.3-1c0.4-0.4,0.6-0.8,0.8-1.3c0.2-0.5,0.3-1,0.3-1.5v-1.9
						c0-0.5-0.1-1-0.3-1.5c-0.2-0.5-0.4-0.9-0.8-1.3c-0.4-0.4-0.8-0.7-1.3-0.9c-0.5-0.2-1.2-0.3-1.9-0.3h-12.4
						c-0.7,0-1.4,0.1-1.9,0.3c-0.6,0.2-1,0.5-1.4,0.9c-0.4,0.4-0.6,0.8-0.8,1.3c-0.2,0.5-0.3,1-0.3,1.5v2c0,0.5,0.1,0.9,0.3,1.4
						c0.2,0.5,0.5,0.9,0.8,1.3c0.4,0.4,0.8,0.7,1.4,1c0.6,0.3,1.2,0.4,1.9,0.4H540.6z M530,135.5c-0.3,0-0.6-0.1-0.7-0.3
						c-0.2-0.2-0.2-0.4-0.2-0.7c0-0.2,0.1-0.5,0.2-0.7c0.2-0.2,0.4-0.3,0.7-0.3h8.6c0.3,0,0.6,0.1,0.7,0.3c0.2,0.2,0.2,0.4,0.2,0.7
						c0,0.2-0.1,0.5-0.2,0.7c-0.2,0.2-0.4,0.3-0.7,0.3H530z M544.8,128.9h-4.4v-4.7h-1v4.7H535v-12.9h4.4v4h1v-4h4.4V128.9z"/>
					<path class="st0" d="M547.7,127.9v-4h15.1l0.3-3.4h-14.7v-4.2h20.3l-0.7,7.6h1.5v4H547.7z M569,139.6h-20.6v-6.8h15.1v-0.6
						h-15.1v-3.3h20.3v6.8h-15.1v0.7H569V139.6z"/>
				</g>
			</g>
			<g>
				<path class="st0" d="M420.7,169.5l3.1-15.7h1.8l4.7,11.9l-1,0l9.2-11.9h1.9l-3.1,15.7h-2.2l2.5-12.4l0.6,0l-8.2,10.4h-1
					l-4.2-10.5l0.5,0.1l-2.5,12.3H420.7z"/>
				<path class="st0" d="M447,169.5c-1,0-1.9-0.2-2.6-0.6c-0.8-0.4-1.3-0.9-1.7-1.6c-0.4-0.7-0.6-1.6-0.6-2.6c0-1,0.2-1.9,0.5-2.8
					c0.3-0.9,0.8-1.6,1.4-2.2c0.6-0.6,1.3-1.1,2.1-1.5c0.8-0.4,1.7-0.5,2.7-0.5c1,0,1.9,0.2,2.6,0.6c0.7,0.4,1.3,0.9,1.7,1.6
					c0.4,0.7,0.6,1.5,0.6,2.5c0,1.4-0.2,2.6-0.8,3.7c-0.5,1.1-1.3,1.9-2.3,2.5C449.4,169.2,448.3,169.5,447,169.5z M447.1,168.9
					c1.1,0,2.1-0.3,3-0.8c0.9-0.5,1.5-1.3,2-2.2c0.5-0.9,0.8-2,0.8-3.2c0-1.3-0.4-2.3-1.2-3c-0.8-0.7-1.8-1.1-3.2-1.1
					c-1.1,0-2.1,0.3-3,0.8c-0.9,0.5-1.6,1.3-2.1,2.2c-0.5,0.9-0.8,2-0.8,3.2c0,1.3,0.4,2.3,1.2,3S445.7,168.9,447.1,168.9z
					 M451.6,169.5l0.8-3.9l0.6-1.8l0.1-1.9l0.8-4.1h0.7l-2.3,11.6H451.6z"/>
				<path class="st0" d="M464.9,157.8c1.1,0,1.9,0.2,2.6,0.6c0.7,0.4,1.1,1,1.3,1.7c0.2,0.7,0.2,1.6,0.1,2.6l-1.4,6.8h-0.7l1.4-6.8
					c0.3-1.3,0.1-2.3-0.5-3.1c-0.6-0.8-1.5-1.1-2.9-1.1c-1.4,0-2.6,0.4-3.5,1.2c-0.9,0.8-1.6,1.9-1.9,3.4l-1.3,6.4h-0.7l2.3-11.6
					h0.7l-0.7,3.4l-0.3-0.1c0.6-1.2,1.3-2,2.2-2.6C462.6,158,463.7,157.8,464.9,157.8z"/>
				<path class="st0" d="M477.1,169.5c-1,0-1.9-0.2-2.5-0.6c-0.6-0.4-1.1-1-1.3-1.7c-0.2-0.7-0.2-1.6-0.1-2.6l1.3-6.8h0.7l-1.3,6.8
					c-0.3,1.3-0.1,2.3,0.4,3.1c0.6,0.8,1.5,1.1,2.9,1.1c1.4,0,2.6-0.4,3.5-1.2c0.9-0.8,1.5-1.9,1.8-3.4l1.3-6.4h0.7l-2.3,11.6h-0.7
					l0.7-3.4l0.2,0.1c-0.6,1.2-1.3,2-2.2,2.6C479.3,169.3,478.3,169.5,477.1,169.5z"/>
				<path class="st0" d="M492,169.5c-1,0-1.9-0.2-2.6-0.6c-0.8-0.4-1.3-0.9-1.7-1.6c-0.4-0.7-0.6-1.6-0.6-2.6c0-1,0.2-1.9,0.5-2.8
					c0.3-0.9,0.8-1.6,1.4-2.2c0.6-0.6,1.3-1.1,2.1-1.5c0.8-0.4,1.7-0.5,2.7-0.5c1,0,1.9,0.2,2.6,0.6c0.7,0.4,1.3,0.9,1.7,1.6
					c0.4,0.7,0.6,1.5,0.6,2.5c0,1.4-0.2,2.6-0.8,3.7c-0.5,1.1-1.3,1.9-2.3,2.5C494.4,169.2,493.3,169.5,492,169.5z M492.1,168.9
					c1.1,0,2.1-0.3,3-0.8c0.9-0.5,1.5-1.3,2-2.2c0.5-0.9,0.8-2,0.8-3.2c0-1.3-0.4-2.3-1.2-3c-0.8-0.7-1.8-1.1-3.2-1.1
					c-1.1,0-2.1,0.3-3,0.8c-0.9,0.5-1.6,1.3-2.1,2.2c-0.5,0.9-0.8,2-0.8,3.2c0,1.3,0.4,2.3,1.2,3
					C489.6,168.5,490.7,168.9,492.1,168.9z M496.6,169.5l0.8-3.9l0.6-1.8l0.1-1.9l0.8-4.1h0.7l-2.3,11.6H496.6z"/>
				<path class="st0" d="M502.3,169.5l3.3-16.6h0.7l-3.3,16.6H502.3z"/>
				<path class="st0" d="M513.6,169.5l3.1-15.7h6.9c1.6,0,2.8,0.3,3.7,0.9c0.9,0.6,1.3,1.4,1.3,2.6c0,1-0.2,1.8-0.7,2.5
					c-0.5,0.7-1.1,1.2-1.9,1.5c-0.8,0.3-1.6,0.5-2.5,0.5l0.5-0.6c1.2,0,2.1,0.3,2.8,0.9c0.7,0.6,1.1,1.4,1.1,2.6
					c0,1.1-0.3,2-0.8,2.7c-0.6,0.7-1.4,1.3-2.4,1.6c-1,0.4-2.2,0.5-3.6,0.5H513.6z M516.1,167.7h5.1c1.4,0,2.5-0.3,3.3-0.8
					c0.8-0.5,1.2-1.3,1.2-2.3c0-0.8-0.3-1.3-0.9-1.7c-0.6-0.3-1.4-0.5-2.4-0.5h-5.6l0.4-1.8h5c0.8,0,1.5-0.1,2.2-0.3
					c0.6-0.2,1.1-0.6,1.4-1c0.3-0.4,0.5-1,0.5-1.7c0-0.7-0.3-1.2-0.8-1.5c-0.5-0.3-1.3-0.5-2.3-0.5h-4.6L516.1,167.7z"/>
				<path class="st0" d="M535.4,169.5c-1,0-1.9-0.2-2.5-0.6c-0.6-0.4-1.1-1-1.3-1.7c-0.2-0.7-0.3-1.6-0.1-2.6l1.3-6.8h0.7l-1.3,6.8
					c-0.3,1.3-0.1,2.3,0.4,3.1c0.6,0.8,1.5,1.1,2.9,1.1c1.4,0,2.6-0.4,3.5-1.2c0.9-0.8,1.5-1.9,1.8-3.4l1.3-6.4h0.7l-2.3,11.6h-0.7
					l0.7-3.4l0.2,0.1c-0.6,1.2-1.3,2-2.2,2.6C537.7,169.3,536.6,169.5,535.4,169.5z"/>
				<path class="st0" d="M545.6,169.5l2.3-11.6h0.7l-2.3,11.6H545.6z M549,154.8c-0.2,0-0.4-0.1-0.5-0.2c-0.1-0.1-0.2-0.3-0.2-0.5
					c0-0.2,0.1-0.4,0.2-0.5c0.2-0.2,0.3-0.2,0.5-0.2c0.2,0,0.4,0.1,0.5,0.2c0.1,0.1,0.2,0.3,0.2,0.5c0,0.2-0.1,0.4-0.2,0.5
					C549.4,154.7,549.2,154.8,549,154.8z"/>
				<path class="st0" d="M551.3,169.5l3.3-16.6h0.7l-3.3,16.6H551.3z"/>
				<path class="st0" d="M561.7,169.5c-1,0-1.9-0.2-2.6-0.6c-0.8-0.4-1.3-0.9-1.7-1.6c-0.4-0.7-0.6-1.6-0.6-2.6c0-1,0.2-1.9,0.5-2.8
					c0.3-0.9,0.8-1.6,1.4-2.2c0.6-0.6,1.3-1.1,2.1-1.5c0.8-0.4,1.7-0.5,2.7-0.5c1,0,1.9,0.2,2.6,0.6c0.7,0.4,1.3,0.9,1.7,1.6
					c0.4,0.7,0.6,1.5,0.6,2.5c0,1-0.2,2-0.5,2.8c-0.3,0.9-0.7,1.6-1.3,2.3c-0.6,0.6-1.2,1.1-2,1.5
					C563.6,169.4,562.7,169.5,561.7,169.5z M561.9,168.9c1.1,0,2.1-0.3,3-0.8c0.9-0.5,1.5-1.3,2-2.2c0.5-0.9,0.8-2,0.8-3.2
					c0-1.3-0.4-2.3-1.2-3c-0.8-0.7-1.8-1.1-3.2-1.1c-1.1,0-2.1,0.3-3,0.8c-0.9,0.5-1.6,1.3-2.1,2.2c-0.5,0.9-0.8,2-0.8,3.2
					c0,1.3,0.4,2.3,1.2,3C559.4,168.5,560.5,168.9,561.9,168.9z M566.4,169.5l0.8-3.9l0.6-1.8l0.1-1.9l1.8-9.1h0.7l-3.3,16.6H566.4z
					"/>
				<path class="st0" d="M577,169.5c-1.1,0-2-0.2-2.8-0.6c-0.8-0.4-1.4-0.9-1.8-1.6c-0.4-0.7-0.6-1.6-0.6-2.6c0-1.3,0.3-2.5,0.8-3.6
					c0.5-1,1.3-1.9,2.2-2.5c0.9-0.6,2-0.9,3.2-0.9c1,0,1.9,0.2,2.6,0.6c0.7,0.4,1.3,0.9,1.7,1.6c0.4,0.7,0.6,1.6,0.6,2.6
					c0,0.2,0,0.4,0,0.6c0,0.2,0,0.4-0.1,0.6h-10.4l0.1-0.6h9.9l-0.3,0.3c0.2-1.1,0.1-2-0.2-2.7c-0.3-0.7-0.8-1.3-1.5-1.7
					c-0.7-0.4-1.5-0.6-2.4-0.6c-1.1,0-2,0.3-2.8,0.8c-0.8,0.5-1.5,1.3-2,2.2c-0.5,0.9-0.7,2-0.7,3.2c0,1.3,0.4,2.4,1.2,3.1
					c0.8,0.7,1.9,1.1,3.4,1.1c0.9,0,1.6-0.1,2.4-0.4c0.7-0.3,1.3-0.7,1.8-1.2l0.4,0.5c-0.5,0.6-1.1,1-1.9,1.3
					C578.8,169.4,578,169.5,577,169.5z"/>
				<path class="st0" d="M585.4,169.5l2.3-11.6h0.7l-0.7,3.6l-0.1-0.2c0.5-1.1,1.2-1.9,2-2.5c0.9-0.6,2-0.9,3.3-0.9l-0.1,0.7
					c0,0-0.1,0-0.1,0c0,0-0.1,0-0.1,0c-1.4,0-2.5,0.4-3.4,1.2c-0.9,0.8-1.5,2.1-1.8,3.7l-1.2,6H585.4z"/>
			</g>
		</g>
	</g>
	<g>
		<g>
			<path class="st0" d="M387.5,277.9h-3.9v3.4h-1.5v-3.4h-3.8v-1.2h9.2V277.9z M378.8,275c2.1-0.3,3.2-1.2,3.3-2.2h-2.9v-1.2h7.5
				v1.2h-2.9c0.1,1,1.2,2,3.3,2.2l-0.5,1.1c-1.8-0.2-3-1-3.6-2c-0.6,1-1.9,1.8-3.6,2L378.8,275z"/>
			<path class="st0" d="M394,276.7c-1.1-0.4-1.9-1.1-2.4-2c-0.5,1-1.3,1.8-2.5,2.2l-0.7-1.1c1.7-0.5,2.4-1.9,2.4-3.2v-1h1.5v1
				c0,1.3,0.7,2.5,2.4,3L394,276.7z M390,277.6h6.9v3.7h-1.5v-2.5H390V277.6z M396.9,271.1v6.1h-1.5v-6.1H396.9z"/>
			<path class="st0" d="M402.7,278.3c0.8-0.1,1.7-0.1,2.5-0.2l0.1,1.1c-2.2,0.4-4.6,0.4-6.4,0.4l-0.2-1.2c0.8,0,1.6,0,2.5,0v-0.9
				c-1.1-0.2-1.8-0.9-1.8-1.8c0-1.1,1-1.9,2.5-1.9c1.5,0,2.5,0.8,2.5,1.9c0,0.9-0.7,1.6-1.8,1.8V278.3z M405,273.3h-6.1v-1.1h2.3
				v-1.1h1.5v1.1h2.3V273.3z M402,276.5c0.7,0,1.1-0.3,1.1-0.8c0-0.5-0.5-0.8-1.1-0.8c-0.7,0-1.1,0.3-1.1,0.8
				C400.8,276.2,401.3,276.5,402,276.5z M407.1,271.1v10.2h-1.5v-10.2H407.1z"/>
			<path class="st0" d="M412.6,273.3c0,1.8,0.7,3.7,2.4,4.5L414,279c-1.1-0.5-1.8-1.5-2.2-2.7c-0.4,1.3-1.2,2.4-2.4,2.9l-0.9-1.2
				c1.7-0.8,2.5-2.7,2.5-4.6v-1.5h1.5V273.3z M418.2,276.2h-1.5v5h-1.5v-10.2h1.5v3.9h1.5V276.2z"/>
			<path class="st0" d="M427.3,271.2h1.4v9.6h-1.4V276h-0.8c-0.1,2-1,3.2-2.2,3.2c-1.3,0-2.2-1.4-2.2-3.7c0-2.3,0.9-3.7,2.2-3.7
				c1.2,0,2,1.1,2.2,3h0.8V271.2z M425.2,275.5c0-1.6-0.3-2.3-0.9-2.3c-0.6,0-0.9,0.8-0.9,2.3c0,1.6,0.3,2.3,0.9,2.3
				C424.9,277.8,425.2,277.1,425.2,275.5z M430.8,271.1v10.2h-1.4v-10.2H430.8z"/>
			<path class="st0" d="M441.4,278.8v1.2h-9.2v-1.2H441.4z M440.5,277.1c-1.8-0.4-3.1-1.3-3.7-2.6c-0.7,1.3-1.9,2.3-3.7,2.6
				l-0.6-1.2c2.3-0.4,3.6-2,3.6-3.5v-0.7h1.6v0.7c0,1.5,1.3,3.1,3.6,3.5L440.5,277.1z"/>
			<path class="st0" d="M447,274.7c-0.2,1.1-1.1,1.8-2.3,1.8c-1.3,0-2.3-1-2.3-2.4c0-1.4,1-2.4,2.3-2.4c1.1,0,2,0.7,2.3,1.8h0.7
				v-2.2h1.4v5.6h-1.4v-2.2H447z M444.7,275.3c0.6,0,1-0.5,1-1.2c0-0.8-0.4-1.2-1-1.2c-0.6,0-1,0.5-1,1.2
				C443.7,274.8,444.1,275.3,444.7,275.3z M444.2,277.4h6.9v3.8h-6.9V277.4z M445.6,280h4v-1.5h-4V280z M451,271.1v5.9h-1.4v-5.9
				H451z"/>
			<path class="st0" d="M454.5,271.9v2.5h2.1v-2.5h1.4v7h-5v-7H454.5z M454.5,277.7h2.1v-2.3h-2.1V277.7z M461,271.1v10.2h-1.5
				v-10.2H461z"/>
		</g>
		<g>
			<path class="st0" d="M378.8,295.3h1.6v0.3h-1.2v7.8h1.2v0.3h-1.6V295.3z"/>
			<g>
				<path class="st0" d="M382.7,299.5c0-2.1,0.7-3.2,1.9-3.2c1.2,0,1.9,1.1,1.9,3.2s-0.7,3.3-1.9,3.3
					C383.4,302.8,382.7,301.6,382.7,299.5z M385.9,299.5c0-1.9-0.5-2.8-1.4-2.8c-0.8,0-1.4,0.9-1.4,2.8c0,1.9,0.5,2.8,1.4,2.8
					C385.4,302.3,385.9,301.4,385.9,299.5z"/>
				<path class="st0" d="M387.5,301.9l0.3-0.3c0.4,0.4,0.9,0.8,1.7,0.8c0.8,0,1.4-0.5,1.4-1.3c0-0.8-0.6-1.4-2.1-1.4v-0.4
					c1.4,0,1.9-0.6,1.9-1.3c0-0.7-0.5-1.1-1.2-1.1c-0.6,0-1.1,0.3-1.4,0.7l-0.3-0.3c0.4-0.4,1-0.8,1.7-0.8c1,0,1.7,0.6,1.7,1.5
					c0,0.8-0.5,1.3-1.2,1.5v0c0.8,0.2,1.4,0.7,1.4,1.6c0,1.1-0.8,1.8-1.9,1.8C388.5,302.8,387.9,302.3,387.5,301.9z"/>
				<path class="st0" d="M392.7,302.2l0.3-0.3c0.3,0.3,0.7,0.5,1.1,0.5c1,0,1.8-0.8,1.8-3c-0.4,0.5-1,0.9-1.6,0.9
					c-1.1,0-1.7-0.7-1.7-1.9c0-1.2,0.8-2,1.7-2c1.2,0,2.1,1,2.1,3c0,2.6-1.1,3.5-2.3,3.5C393.5,302.8,393,302.5,392.7,302.2z
					 M394.4,299.8c0.4,0,1-0.3,1.5-0.9c-0.1-1.3-0.6-2.1-1.6-2.1c-0.7,0-1.2,0.7-1.2,1.5C393.1,299.1,393.5,299.8,394.4,299.8z"/>
				<path class="st0" d="M397.8,302.2h1.5v-5h-1.1v-0.3c0.5-0.1,0.9-0.2,1.2-0.4h0.4v5.8h1.3v0.5h-3.3V302.2z"/>
				<path class="st0" d="M402.7,302.2h1.5v-5H403v-0.3c0.5-0.1,0.9-0.2,1.2-0.4h0.4v5.8h1.3v0.5h-3.3V302.2z"/>
			</g>
			<path class="st0" d="M408.5,303.4h1.2v-7.8h-1.2v-0.3h1.6v8.4h-1.6V303.4z"/>
		</g>
		<g>
			<path class="st0" d="M425.4,297.4c0,1.4,1.1,2.8,2.1,3.3l-0.3,0.4c-0.9-0.5-1.7-1.5-2.1-2.7c-0.3,1.2-1.2,2.3-2,2.8l-0.3-0.4
				c1-0.6,2.1-2,2.1-3.5v-1.6h0.5V297.4z M429.1,295.2v7.8h-0.5v-4.7h-2v-0.4h2v-2.8H429.1z"/>
			<path class="st0" d="M434.7,299v0.9h2.4v1.6h-4.8v1h5v0.4h-5.5v-1.8h4.8v-0.9h-4.8v-0.4h2.4V299h-3.3v-0.4h7.1v0.4H434.7z
				 M431.7,296.6c0-0.9,1-1.4,2.7-1.4c1.7,0,2.7,0.5,2.7,1.4c0,0.9-1,1.4-2.7,1.4C432.7,298,431.7,297.5,431.7,296.6z M432.2,296.6
				c0,0.6,0.9,1,2.2,1c1.4,0,2.2-0.4,2.2-1c0-0.6-0.9-1-2.2-1C433.1,295.6,432.2,296,432.2,296.6z"/>
			<path class="st0" d="M446.1,299.3v0.4H439v-0.4H446.1z M439.8,300.6h5.4v2.4h-0.5v-2h-4.9V300.6z M445.2,298.4H440v-3.1h5.2v0.4
				h-4.7v0.9h4.5v0.4h-4.5v1h4.8V298.4z"/>
			<path class="st0" d="M451,298.9h-3.4v-3.4h0.5v1.3h2.5v-1.3h0.5v0.8h2v-1.2h0.5v4.1H453v-1.1h-2V298.9z M450.5,297.2H448v1.4h2.5
				V297.2z M453.8,302.5v0.4h-5.3v-1.8h4.5v-1h-4.5v-0.4h5v1.7H449v1.1H453.8z M451,296.7v1h2v-1H451z"/>
			<path class="st0" d="M457.9,297.4c0,1.4,1.1,2.9,2.2,3.4l-0.3,0.4c-0.9-0.5-1.7-1.5-2.1-2.6c-0.4,1.2-1.2,2.3-2.1,2.8l-0.3-0.4
				c1-0.5,2.2-2,2.2-3.5v-1.6h0.5V297.4z M461.6,295.2v7.8h-0.5v-7.8H461.6z"/>
			<path class="st0" d="M466.2,296h3.5v5h-3.5V296z M466.7,300.6h2.6v-4.2h-2.6V300.6z M473.2,298.8h-1.4v4.2h-0.5v-7.8h0.5v3.2h1.4
				V298.8z"/>
			<path class="st0" d="M481.1,301.6v0.4H474v-0.4h3.3v-2h-2.6v-0.4h1.3v-2.8h-1.3V296h5.7v0.4h-1.3v2.8h1.3v0.4h-2.6v2H481.1z
				 M476.4,299.1h2.2v-2.8h-2.2V299.1z"/>
			<path class="st0" d="M489.2,299.5h-3.3v3.5h-0.5v-3.5h-3.3v-0.4h5.4c0.3-1.1,0.3-2,0.3-2.7v-0.3H483v-0.4h5.2v0.7
				c0,0.7,0,1.6-0.2,2.7h1.2V299.5z"/>
			<path class="st0" d="M493,296.1h2.9v4.7H493V296.1z M493.5,300.4h2v-3.9h-2V300.4z M499.3,295.2v7.8h-0.5v-4.3h-1.3v3.8h-0.5
				v-7.2h0.5v3h1.3v-3.2H499.3z"/>
			<path class="st0" d="M507.9,299.2v0.4h-7.1v-0.4h3.3v-1h-2.4v-2.8h0.5v1h4.3v-1h0.5v2.8h-2.4v1H507.9z M507,301.6
				c0,0.9-1,1.4-2.7,1.4c-1.7,0-2.7-0.5-2.7-1.4c0-0.9,1-1.3,2.7-1.3C506,300.3,507,300.8,507,301.6z M506.6,301.6
				c0-0.6-0.8-1-2.2-1s-2.2,0.4-2.2,1c0,0.6,0.8,1,2.2,1S506.6,302.2,506.6,301.6z M502.3,297.8h4.3v-1.1h-4.3V297.8z"/>
			<path class="st0" d="M513.2,299.6c-0.9-0.3-1.7-1.1-2-2c-0.3,1-1.1,1.8-2,2.2l-0.2-0.4c1.1-0.4,2-1.5,2-2.8v-1h0.5v1.1
				c0,1.1,0.9,2.1,2,2.5L513.2,299.6z M510.7,302.4h4.7v0.4h-5.1v-2.4h0.5V302.4z M516.2,297.6v0.4H515v2.9h-0.5v-5.8h0.5v2.5H516.2
				z"/>
			<path class="st0" d="M524.2,301.6v0.4h-7.1v-0.4h3.3v-1.7H518v-2.3h4.8v-1.4H518v-0.4h5.3v2.2h-4.8v1.5h5v0.4h-2.6v1.7H524.2z"/>
			<path class="st0" d="M527.5,301.9h1.5v-5h-1.1v-0.3c0.5-0.1,0.9-0.2,1.2-0.4h0.4v5.8h1.3v0.5h-3.3V301.9z"/>
			<path class="st0" d="M531.8,300.8c0-0.8,0.6-1.4,1.2-1.7v0c-0.5-0.3-0.9-0.8-0.9-1.4c0-0.9,0.7-1.5,1.7-1.5
				c1.1,0,1.7,0.7,1.7,1.6c0,0.7-0.5,1.3-0.9,1.6v0c0.5,0.3,1.1,0.8,1.1,1.6c0,0.9-0.8,1.6-1.9,1.6
				C532.6,302.5,531.8,301.8,531.8,300.8z M535.2,300.8c0-0.9-0.9-1.3-1.9-1.6c-0.6,0.4-1.1,0.9-1.1,1.5c0,0.8,0.6,1.3,1.5,1.3
				C534.7,302.1,535.2,301.5,535.2,300.8z M535,297.7c0-0.7-0.5-1.2-1.2-1.2c-0.7,0-1.2,0.5-1.2,1.1c0,0.9,0.8,1.2,1.6,1.5
				C534.8,298.7,535,298.2,535,297.7z"/>
			<path class="st0" d="M536.6,303.6c0.5-0.2,0.8-0.7,0.8-1.2c0,0-0.1,0-0.1,0c-0.2,0-0.5-0.2-0.5-0.5c0-0.3,0.2-0.4,0.5-0.4
				c0.3,0,0.5,0.3,0.5,0.8c0,0.7-0.4,1.3-1.1,1.6L536.6,303.6z"/>
			<path class="st0" d="M541.2,296h3.5v5h-3.5V296z M541.6,300.6h2.6v-4.2h-2.6V300.6z M548.1,298.8h-1.4v4.2h-0.5v-7.8h0.5v3.2h1.4
				V298.8z"/>
			<path class="st0" d="M556,301.6v0.4h-7.1v-0.4h3.3v-2h-2.6v-0.4h1.3v-2.8h-1.3V296h5.7v0.4H554v2.8h1.3v0.4h-2.6v2H556z
				 M551.4,299.1h2.2v-2.8h-2.2V299.1z"/>
			<path class="st0" d="M558,295.8v2.2h2.7v-2.2h0.5v5.2h-3.6v-5.2H558z M558,300.7h2.7v-2.3H558V300.7z M563.4,295.1v7.9h-0.5v-7.9
				H563.4z"/>
			<path class="st0" d="M572.3,301.5v0.4h-7.1v-0.4H572.3z M565.6,299.6c1.1-0.2,2.9-1.3,2.9-2.7v-0.6h-2.7V296h5.9v0.4H569v0.6
				c0,1.4,1.8,2.4,2.9,2.6l-0.2,0.4c-1.1-0.2-2.5-1.1-3-2.2c-0.5,1.2-1.9,2-3,2.2L565.6,299.6z"/>
			<path class="st0" d="M580.4,298.8v0.4h-7.1v-0.4H580.4z M575.3,295.8H574v-0.4h5.7v0.4h-1.3v1.8h1.3v0.4H574v-0.4h1.3V295.8z
				 M574.7,302.5h5v0.4h-5.5v-1.7h4.8v-0.8h-4.8V300h5.3v1.6h-4.8V302.5z M577.9,295.8h-2.2v1.8h2.2V295.8z"/>
			<path class="st0" d="M582.4,300.7c1.6,0,2.6-0.1,3.8-0.3l0,0.4c-1.2,0.2-2.3,0.3-3.8,0.3h-0.6v-2.9h3v-1.9h-3v-0.4h3.5v2.7h-3
				v2.1H582.4z M588.8,298.8h-1.4v4.2h-0.5v-7.8h0.5v3.2h1.4V298.8z"/>
			<path class="st0" d="M592.1,297.7c0,1.3,1.1,2.7,2.1,3.2l-0.3,0.4c-0.8-0.5-1.7-1.4-2-2.5c-0.3,1.2-1.2,2.3-2.1,2.7l-0.3-0.4
				c1-0.5,2.1-2,2.1-3.4v-1.3h-1.9V296h4.2v0.4h-1.8V297.7z M596.9,298.8h-1.4v4.2h-0.5v-7.8h0.5v3.3h1.4V298.8z"/>
			<path class="st0" d="M601.6,299.5c0-2.6,1.1-3.5,2.3-3.5c0.6,0,1,0.3,1.4,0.6L605,297c-0.3-0.3-0.7-0.5-1.1-0.5
				c-1,0-1.8,0.7-1.8,3c0.4-0.5,1-0.8,1.5-0.8c1.1,0,1.7,0.7,1.7,1.9c0,1.2-0.8,2-1.7,2C602.4,302.5,601.6,301.4,601.6,299.5z
				 M602.1,299.9c0.1,1.3,0.6,2.1,1.6,2.1c0.7,0,1.2-0.7,1.2-1.5c0-0.9-0.4-1.5-1.3-1.5C603.2,299,602.6,299.3,602.1,299.9z"/>
			<path class="st0" d="M606.3,299.2c0-2.1,0.7-3.2,1.9-3.2c1.2,0,1.9,1.1,1.9,3.2s-0.7,3.3-1.9,3.3
				C607,302.5,606.3,301.3,606.3,299.2z M609.6,299.2c0-1.9-0.5-2.8-1.4-2.8c-0.8,0-1.4,0.9-1.4,2.8s0.5,2.8,1.4,2.8
				C609,302.1,609.6,301.1,609.6,299.2z"/>
			<path class="st0" d="M611,302.1c2-2,3-3.2,3-4.3c0-0.8-0.4-1.3-1.3-1.3c-0.6,0-1.1,0.3-1.4,0.8l-0.3-0.3c0.5-0.5,1-0.9,1.8-0.9
				c1.1,0,1.8,0.7,1.8,1.8c0,1.2-1.1,2.4-2.8,4.2c0.3,0,0.7-0.1,1.1-0.1h2v0.5H611V302.1z"/>
			<path class="st0" d="M615.7,299.7h2.2v0.4h-2.2V299.7z"/>
			<path class="st0" d="M618.7,299.2c0-2.1,0.7-3.2,1.9-3.2c1.2,0,1.9,1.1,1.9,3.2s-0.7,3.3-1.9,3.3
				C619.4,302.5,618.7,301.3,618.7,299.2z M622,299.2c0-1.9-0.5-2.8-1.4-2.8c-0.8,0-1.4,0.9-1.4,2.8s0.5,2.8,1.4,2.8
				C621.4,302.1,622,301.1,622,299.2z"/>
			<path class="st0" d="M626.6,296.6h-3.3v-0.5h3.9v0.3c-1.5,2-1.8,3.5-1.9,5.9h-0.6C624.9,299.9,625.4,298.3,626.6,296.6z"/>
			<path class="st0" d="M635.3,301.6v0.4h-7.1v-0.4h3.3v-1.2c-1.4-0.1-2.3-0.6-2.3-1.5c0-0.9,1-1.5,2.5-1.5c1.5,0,2.5,0.5,2.5,1.5
				c0,0.9-0.9,1.4-2.3,1.5v1.2H635.3z M634.9,296.8h-6.3v-0.4h2.9v-1.1h0.5v1.1h2.9V296.8z M631.7,300c1.2,0,2-0.4,2-1.1
				c0-0.7-0.8-1.1-2-1.1c-1.2,0-2,0.4-2,1.1C629.7,299.6,630.5,300,631.7,300z"/>
		</g>
		<g>
			<path class="st0" d="M378.8,306.3h1.6v0.3h-1.2v7.8h1.2v0.3h-1.6V306.3z"/>
			<g>
				<path class="st0" d="M382.5,307.6h3.6v0.5h-3v2.3h2.6v0.5H383v2.7h3.1v0.5h-3.7V307.6z"/>
				<path class="st0" d="M387,311.3h2.2v0.4H387V311.3z"/>
				<path class="st0" d="M390.4,309.3h0.4l0.1,0.7h0c0.4-0.5,1-0.8,1.5-0.8c0.8,0,1.1,0.4,1.3,1c0.5-0.6,1-1,1.6-1
					c0.9,0,1.4,0.6,1.4,1.8v3h-0.5v-2.9c0-1-0.3-1.4-1-1.4c-0.4,0-0.9,0.3-1.4,0.8v3.5h-0.5v-2.9c0-1-0.3-1.4-1-1.4
					c-0.4,0-0.9,0.3-1.4,0.8v3.5h-0.5V309.3z"/>
				<path class="st0" d="M398.1,312.8c0-1,0.9-1.5,3-1.8c0-0.7-0.2-1.4-1.1-1.4c-0.6,0-1.2,0.3-1.5,0.5l-0.2-0.4
					c0.4-0.2,1-0.6,1.8-0.6c1.1,0,1.5,0.8,1.5,1.8v3h-0.4l-0.1-0.6h0c-0.5,0.4-1,0.7-1.6,0.7C398.7,314.1,398.1,313.7,398.1,312.8z
					 M401.1,313v-1.5c-1.9,0.2-2.5,0.6-2.5,1.4c0,0.6,0.4,0.9,1,0.9C400.1,313.7,400.5,313.4,401.1,313z"/>
				<path class="st0" d="M403.1,307.8c0-0.2,0.2-0.4,0.4-0.4c0.2,0,0.4,0.2,0.4,0.4c0,0.3-0.2,0.4-0.4,0.4
					C403.3,308.2,403.1,308,403.1,307.8z M403.2,309.3h0.5v4.7h-0.5V309.3z"/>
				<path class="st0" d="M405.5,313.3V307h0.5v6.4c0,0.2,0.1,0.3,0.2,0.3c0,0,0.1,0,0.2,0l0.1,0.4c-0.1,0-0.2,0.1-0.3,0.1
					C405.7,314.1,405.5,313.9,405.5,313.3z"/>
			</g>
			<path class="st0" d="M408.5,314.4h1.2v-7.8h-1.2v-0.3h1.6v8.4h-1.6V314.4z"/>
		</g>
		<g>
			<path class="st0" d="M422.8,312.8l0.3-0.4c0.4,0.3,0.8,0.6,1.5,0.6c0.7,0,1.1-0.4,1.1-0.9c0-0.6-0.6-0.8-1.1-1
				c-0.7-0.2-1.4-0.5-1.4-1.4c0-0.7,0.5-1.3,1.5-1.3c0.5,0,1,0.2,1.4,0.5l-0.3,0.4c-0.3-0.2-0.6-0.4-1.1-0.4c-0.7,0-1,0.4-1,0.8
				c0,0.5,0.5,0.7,1.1,0.9c0.7,0.3,1.5,0.5,1.5,1.4c0,0.7-0.6,1.3-1.6,1.3C423.8,313.5,423.2,313.2,422.8,312.8z"/>
			<path class="st0" d="M427.4,308.6h0.4l0.1,0.7h0c0.4-0.5,1-0.8,1.5-0.8c0.8,0,1.1,0.4,1.3,1c0.5-0.6,1-1,1.6-1
				c0.9,0,1.4,0.6,1.4,1.8v3h-0.5v-2.9c0-1-0.3-1.4-1-1.4c-0.4,0-0.9,0.3-1.4,0.8v3.5h-0.5v-2.9c0-1-0.3-1.4-1-1.4
				c-0.4,0-0.9,0.3-1.4,0.8v3.5h-0.5V308.6z"/>
			<path class="st0" d="M435.2,307.1c0-0.2,0.2-0.4,0.4-0.4c0.2,0,0.4,0.2,0.4,0.4c0,0.3-0.2,0.4-0.4,0.4
				C435.4,307.5,435.2,307.4,435.2,307.1z M435.4,308.6h0.5v4.7h-0.5V308.6z"/>
			<path class="st0" d="M437.6,312.6v-6.3h0.5v6.4c0,0.2,0.1,0.3,0.2,0.3c0,0,0.1,0,0.2,0l0.1,0.4c-0.1,0-0.2,0.1-0.3,0.1
				C437.8,313.5,437.6,313.2,437.6,312.6z"/>
			<path class="st0" d="M439.6,311c0-1.5,1-2.5,2.1-2.5c1.1,0,1.8,0.8,1.8,2.2c0,0.1,0,0.3,0,0.4h-3.3c0,1.1,0.7,2,1.7,2
				c0.5,0,0.9-0.2,1.3-0.4l0.2,0.4c-0.4,0.2-0.8,0.5-1.5,0.5C440.6,313.5,439.6,312.5,439.6,311z M443,310.7c0-1.1-0.5-1.7-1.3-1.7
				c-0.8,0-1.5,0.6-1.6,1.7H443z"/>
			<path class="st0" d="M444.4,311.4c0-2.6,1.8-4.2,3.9-4.2c1.9,0,3.1,1.3,3.1,3.1c0,1.7-1,2.6-1.8,2.6c-0.5,0-0.9-0.2-1-0.7h0
				c-0.3,0.4-0.8,0.7-1.2,0.7c-0.6,0-1.1-0.5-1.1-1.4c0-1,0.7-2.2,1.8-2.2c0.3,0,0.6,0.2,0.8,0.5h0l0.1-0.4h0.4l-0.4,1.9
				c-0.2,0.9,0,1.3,0.6,1.3c0.6,0,1.4-0.8,1.4-2.1c0-1.7-1-2.8-2.7-2.8c-1.8,0-3.5,1.5-3.5,3.8c0,1.9,1.2,3.1,2.9,3.1
				c0.6,0,1.2-0.2,1.6-0.5l0.2,0.3c-0.6,0.3-1.2,0.5-1.8,0.5C445.8,314.8,444.4,313.5,444.4,311.4z M448.5,311.7l0.3-1.7
				c-0.2-0.4-0.4-0.5-0.7-0.5c-0.9,0-1.4,1-1.4,1.8c0,0.7,0.3,1,0.8,1C447.8,312.4,448.1,312.2,448.5,311.7z"/>
			<path class="st0" d="M452.2,312.8l0.3-0.4c0.4,0.3,0.8,0.6,1.5,0.6c0.7,0,1.1-0.4,1.1-0.9c0-0.6-0.6-0.8-1.1-1
				c-0.7-0.2-1.4-0.5-1.4-1.4c0-0.7,0.5-1.3,1.5-1.3c0.5,0,1,0.2,1.4,0.5l-0.3,0.4c-0.3-0.2-0.6-0.4-1.1-0.4c-0.7,0-1,0.4-1,0.8
				c0,0.5,0.5,0.7,1.1,0.9c0.7,0.3,1.5,0.5,1.5,1.4c0,0.7-0.6,1.3-1.6,1.3C453.2,313.5,452.6,313.2,452.2,312.8z"/>
			<path class="st0" d="M456.7,312v-2.9H456v-0.4l0.8,0l0.1-1.4h0.4v1.4h1.4v0.4h-1.4v3c0,0.6,0.2,1,0.8,1c0.2,0,0.4-0.1,0.6-0.1
				l0.1,0.4c-0.3,0.1-0.6,0.2-0.8,0.2C457,313.5,456.7,312.9,456.7,312z"/>
			<path class="st0" d="M459.7,308.6h0.4l0.1,0.7h0c0.4-0.5,1-0.8,1.5-0.8c0.8,0,1.1,0.4,1.3,1c0.5-0.6,1-1,1.6-1
				c0.9,0,1.4,0.6,1.4,1.8v3h-0.5v-2.9c0-1-0.3-1.4-1-1.4c-0.4,0-0.9,0.3-1.4,0.8v3.5h-0.5v-2.9c0-1-0.3-1.4-1-1.4
				c-0.4,0-0.9,0.3-1.4,0.8v3.5h-0.5V308.6z"/>
			<path class="st0" d="M466.9,308.6h0.6l1,2.9c0.2,0.5,0.3,0.9,0.5,1.4h0c0.2-0.4,0.3-0.9,0.5-1.4l1-2.9h0.5l-1.7,4.7h-0.6
				L466.9,308.6z"/>
			<path class="st0" d="M472,308.6h0.4l0.1,0.7h0c0.4-0.5,1-0.8,1.5-0.8c0.8,0,1.1,0.4,1.3,1c0.5-0.6,1-1,1.6-1
				c0.9,0,1.4,0.6,1.4,1.8v3h-0.5v-2.9c0-1-0.3-1.4-1-1.4c-0.4,0-0.9,0.3-1.4,0.8v3.5h-0.5v-2.9c0-1-0.3-1.4-1-1.4
				c-0.4,0-0.9,0.3-1.4,0.8v3.5H472V308.6z"/>
			<path class="st0" d="M479.7,313c0-0.3,0.2-0.5,0.5-0.5c0.2,0,0.5,0.2,0.5,0.5c0,0.3-0.2,0.5-0.5,0.5
				C480,313.5,479.7,313.3,479.7,313z"/>
			<path class="st0" d="M481.7,311c0-1.6,1-2.5,2.2-2.5c0.6,0,1.1,0.3,1.4,0.6l-0.3,0.4c-0.3-0.3-0.6-0.5-1.1-0.5
				c-0.9,0-1.7,0.8-1.7,2c0,1.2,0.7,2,1.6,2c0.5,0,0.9-0.2,1.2-0.5l0.3,0.4c-0.4,0.4-0.9,0.6-1.5,0.6
				C482.6,313.5,481.7,312.6,481.7,311z"/>
			<path class="st0" d="M485.9,311c0-1.6,1-2.5,2.1-2.5c1.1,0,2.1,0.9,2.1,2.5c0,1.6-1,2.5-2.1,2.5
				C486.9,313.5,485.9,312.6,485.9,311z M489.6,311c0-1.2-0.7-2-1.6-2c-0.9,0-1.6,0.8-1.6,2c0,1.2,0.7,2,1.6,2
				C488.9,313,489.6,312.2,489.6,311z"/>
			<path class="st0" d="M491.5,308.6h0.4l0.1,0.7h0c0.4-0.5,1-0.8,1.5-0.8c0.8,0,1.1,0.4,1.3,1c0.5-0.6,1-1,1.6-1
				c0.9,0,1.4,0.6,1.4,1.8v3h-0.5v-2.9c0-1-0.3-1.4-1-1.4c-0.4,0-0.9,0.3-1.4,0.8v3.5h-0.5v-2.9c0-1-0.3-1.4-1-1.4
				c-0.4,0-0.9,0.3-1.4,0.8v3.5h-0.5V308.6z"/>
		</g>
		<g>
			<path class="st0" d="M378.4,325.7c0-2.1,1.2-3.4,2.9-3.4c0.8,0,1.4,0.4,1.8,0.8l-0.4,0.5c-0.3-0.4-0.8-0.6-1.3-0.6
				c-1.2,0-2,1-2,2.6c0,1.6,0.8,2.7,2,2.7c0.6,0,1.1-0.3,1.5-0.7l0.5,0.5c-0.5,0.6-1.1,0.9-2,0.9C379.6,329,378.4,327.8,378.4,325.7
				z"/>
			<path class="st0" d="M383.7,325.6c0-2.1,1.1-3.3,2.8-3.3c1.6,0,2.8,1.3,2.8,3.3c0,2.1-1.1,3.4-2.8,3.4
				C384.9,329,383.7,327.7,383.7,325.6z M388.4,325.6c0-1.6-0.8-2.6-1.9-2.6c-1.2,0-1.9,1-1.9,2.6c0,1.6,0.8,2.7,1.9,2.7
				C387.6,328.3,388.4,327.2,388.4,325.6z"/>
			<path class="st0" d="M390.6,322.4h1.9c1.4,0,2.4,0.5,2.4,1.9c0,1.4-1,2-2.4,2h-1.1v2.6h-0.8V322.4z M392.4,325.7
				c1.1,0,1.7-0.4,1.7-1.3c0-0.9-0.6-1.2-1.7-1.2h-0.9v2.6H392.4z"/>
			<path class="st0" d="M397.2,326.4l-1.9-4h0.9l0.8,1.8c0.2,0.5,0.4,0.9,0.6,1.4h0c0.2-0.5,0.5-0.9,0.6-1.4l0.8-1.8h0.8l-1.9,4v2.5
				h-0.8V326.4z"/>
			<path class="st0" d="M400.8,322.4h2c1.3,0,2.3,0.5,2.3,1.8c0,1-0.6,1.6-1.5,1.8l1.7,2.8h-0.9l-1.6-2.7h-1.2v2.7h-0.8V322.4z
				 M402.7,325.5c1,0,1.6-0.4,1.6-1.2c0-0.9-0.6-1.2-1.6-1.2h-1.1v2.4H402.7z"/>
			<path class="st0" d="M406.4,322.4h0.8v6.5h-0.8V322.4z"/>
			<path class="st0" d="M408.7,325.7c0-2.1,1.3-3.4,3-3.4c0.9,0,1.5,0.4,1.9,0.8l-0.4,0.5c-0.3-0.3-0.7-0.6-1.4-0.6
				c-1.3,0-2.1,1-2.1,2.6c0,1.6,0.8,2.7,2.2,2.7c0.5,0,0.9-0.1,1.2-0.4v-1.7h-1.4v-0.7h2.1v2.7c-0.4,0.4-1.1,0.8-2,0.8
				C409.9,329,408.7,327.8,408.7,325.7z"/>
			<path class="st0" d="M415.1,322.4h0.8v2.7h3v-2.7h0.8v6.5H419v-3.1h-3v3.1h-0.8V322.4z"/>
			<path class="st0" d="M422.9,323.1h-2v-0.7h4.7v0.7h-2v5.8h-0.8V323.1z"/>
			<path class="st0" d="M430.4,325.7c0-2,1.5-3.3,3.2-3.3c1.7,0,3.2,1.3,3.2,3.3c0,2-1.5,3.3-3.2,3.3
				C431.9,329,430.4,327.7,430.4,325.7z M436.3,325.7c0-1.7-1.2-2.9-2.7-2.9c-1.5,0-2.7,1.1-2.7,2.9c0,1.7,1.2,2.9,2.7,2.9
				C435.1,328.6,436.3,327.4,436.3,325.7z M431.9,325.7c0-1.1,0.9-1.9,1.8-1.9c0.6,0,0.9,0.2,1.2,0.6l-0.3,0.4
				c-0.3-0.3-0.5-0.4-0.9-0.4c-0.7,0-1.2,0.5-1.2,1.3c0,0.9,0.5,1.4,1.2,1.4c0.4,0,0.7-0.2,1-0.4l0.3,0.4c-0.4,0.3-0.7,0.6-1.3,0.6
				C432.7,327.7,431.9,326.9,431.9,325.7z"/>
			<path class="st0" d="M441.6,328l0.5-0.6c0.5,0.5,1.1,0.8,1.8,0.8c0.8,0,1.4-0.4,1.4-1.1c0-0.7-0.5-0.9-1.1-1.1l-0.9-0.4
				c-0.6-0.3-1.3-0.7-1.3-1.7c0-1,0.9-1.7,2-1.7c0.8,0,1.4,0.3,1.9,0.8l-0.4,0.5c-0.4-0.4-0.9-0.6-1.5-0.6c-0.7,0-1.2,0.4-1.2,1
				c0,0.6,0.6,0.9,1.1,1.1l0.9,0.4c0.8,0.3,1.3,0.8,1.3,1.7c0,1-0.8,1.8-2.2,1.8C443,329,442.2,328.6,441.6,328z"/>
			<path class="st0" d="M447.4,322.4h1l1.2,3.5c0.2,0.5,0.3,0.9,0.5,1.4h0c0.2-0.5,0.3-0.9,0.4-1.4l1.2-3.5h1v6.5H452v-3.6
				c0-0.6,0.1-1.3,0.1-1.9h0l-0.5,1.5l-1.2,3.4h-0.5l-1.2-3.4l-0.5-1.5h0c0,0.6,0.1,1.4,0.1,1.9v3.6h-0.7V322.4z"/>
			<path class="st0" d="M454.6,322.4h1.9c1.3,0,2.2,0.5,2.2,1.6c0,0.6-0.3,1.2-0.9,1.4v0c0.8,0.2,1.3,0.7,1.3,1.5
				c0,1.3-1,1.9-2.5,1.9h-2.1V322.4z M456.3,325.2c1.1,0,1.6-0.4,1.6-1.1c0-0.8-0.5-1-1.5-1h-1v2.1H456.3z M456.5,328.2
				c1.1,0,1.8-0.4,1.8-1.3c0-0.8-0.6-1.2-1.8-1.2h-1.1v2.4H456.5z"/>
			<path class="st0" d="M462,325.7c0-2.1,1.2-3.4,2.9-3.4c0.8,0,1.4,0.4,1.8,0.8l-0.4,0.5c-0.3-0.4-0.8-0.6-1.3-0.6
				c-1.2,0-2,1-2,2.6c0,1.6,0.8,2.7,2,2.7c0.6,0,1.1-0.3,1.5-0.7l0.5,0.5c-0.5,0.6-1.1,0.9-2,0.9C463.2,329,462,327.8,462,325.7z"/>
			<path class="st0" d="M467.5,326.5c0-1.6,1.1-2.5,2.2-2.5c1.2,0,2.2,0.9,2.2,2.5c0,1.6-1.1,2.5-2.2,2.5
				C468.6,329,467.5,328.1,467.5,326.5z M471.2,326.5c0-1.1-0.6-1.9-1.4-1.9c-0.8,0-1.4,0.8-1.4,1.9s0.6,1.8,1.4,1.8
				C470.6,328.3,471.2,327.6,471.2,326.5z"/>
			<path class="st0" d="M473,328.4c0-0.4,0.3-0.6,0.6-0.6s0.6,0.3,0.6,0.6c0,0.4-0.3,0.6-0.6,0.6S473,328.8,473,328.4z"/>
			<path class="st0" d="M475.3,330.1c0.6-0.2,0.9-0.7,0.9-1.2c0,0-0.1,0-0.1,0c-0.3,0-0.6-0.2-0.6-0.6c0-0.3,0.3-0.6,0.6-0.6
				c0.4,0,0.7,0.4,0.7,1c0,0.8-0.5,1.5-1.3,1.8L475.3,330.1z"/>
			<path class="st0" d="M480.1,322.4h0.8v5.8h2.8v0.7h-3.6V322.4z"/>
			<path class="st0" d="M484.8,327.4v-2.7h-0.7v-0.6l0.8,0l0.1-1.4h0.7v1.4h1.3v0.7h-1.3v2.7c0,0.6,0.2,0.9,0.7,0.9
				c0.2,0,0.4-0.1,0.5-0.1l0.2,0.6c-0.3,0.1-0.6,0.2-0.9,0.2C485.1,329,484.8,328.4,484.8,327.4z"/>
			<path class="st0" d="M487.5,326.5c0-1.6,1-2.5,2.1-2.5c0.6,0,0.9,0.2,1.4,0.6l0-0.8v-1.8h0.8v7H491l-0.1-0.6h0
				c-0.4,0.4-0.9,0.7-1.5,0.7C488.3,329,487.5,328.1,487.5,326.5z M490.9,327.7v-2.5c-0.4-0.4-0.8-0.5-1.2-0.5
				c-0.8,0-1.4,0.7-1.4,1.8c0,1.2,0.5,1.8,1.3,1.8C490.1,328.3,490.5,328.1,490.9,327.7z"/>
			<path class="st0" d="M493.2,328.4c0-0.4,0.3-0.6,0.6-0.6c0.3,0,0.6,0.3,0.6,0.6c0,0.4-0.3,0.6-0.6,0.6
				C493.4,329,493.2,328.8,493.2,328.4z"/>
			<path class="st0" d="M503.1,322.4h0.9l2.2,6.5h-0.9l-0.6-2h-2.4l-0.6,2h-0.8L503.1,322.4z M502.6,326.3h2l-0.3-1
				c-0.2-0.7-0.4-1.4-0.7-2.2h0c-0.2,0.8-0.4,1.5-0.6,2.2L502.6,326.3z"/>
			<path class="st0" d="M507.1,322.4h0.8v5.8h2.8v0.7h-3.6V322.4z"/>
			<path class="st0" d="M511.9,322.4h0.8v5.8h2.8v0.7h-3.6V322.4z"/>
			<path class="st0" d="M518.7,322.4h2c1.3,0,2.3,0.5,2.3,1.8c0,1-0.6,1.6-1.5,1.8l1.7,2.8h-0.9l-1.6-2.7h-1.2v2.7h-0.8V322.4z
				 M520.6,325.5c1,0,1.6-0.4,1.6-1.2c0-0.9-0.6-1.2-1.6-1.2h-1.1v2.4H520.6z"/>
			<path class="st0" d="M524.3,322.4h0.8v6.5h-0.8V322.4z"/>
			<path class="st0" d="M526.6,325.7c0-2.1,1.3-3.4,3-3.4c0.9,0,1.5,0.4,1.9,0.8l-0.4,0.5c-0.3-0.3-0.7-0.6-1.4-0.6
				c-1.3,0-2.1,1-2.1,2.6c0,1.6,0.8,2.7,2.2,2.7c0.5,0,0.9-0.1,1.2-0.4v-1.7h-1.4v-0.7h2.1v2.7c-0.4,0.4-1.1,0.8-2,0.8
				C527.8,329,526.6,327.8,526.6,325.7z"/>
			<path class="st0" d="M533,322.4h0.8v2.7h3v-2.7h0.8v6.5h-0.8v-3.1h-3v3.1H533V322.4z"/>
			<path class="st0" d="M540.8,323.1h-2v-0.7h4.7v0.7h-2v5.8h-0.8V323.1z"/>
			<path class="st0" d="M543.9,328l0.5-0.6c0.5,0.5,1.1,0.8,1.8,0.8c0.8,0,1.4-0.4,1.4-1.1c0-0.7-0.5-0.9-1.1-1.1l-0.9-0.4
				c-0.6-0.3-1.3-0.7-1.3-1.7c0-1,0.9-1.7,2-1.7c0.8,0,1.4,0.3,1.9,0.8l-0.4,0.5c-0.4-0.4-0.9-0.6-1.5-0.6c-0.7,0-1.2,0.4-1.2,1
				c0,0.6,0.6,0.9,1.1,1.1l0.9,0.4c0.8,0.3,1.3,0.8,1.3,1.7c0,1-0.8,1.8-2.2,1.8C545.2,329,544.4,328.6,543.9,328z"/>
			<path class="st0" d="M551.6,322.4h2c1.3,0,2.3,0.5,2.3,1.8c0,1-0.6,1.6-1.5,1.8l1.7,2.8h-0.9l-1.6-2.7h-1.2v2.7h-0.8V322.4z
				 M553.5,325.5c1,0,1.6-0.4,1.6-1.2c0-0.9-0.6-1.2-1.6-1.2h-1.1v2.4H553.5z"/>
			<path class="st0" d="M557.2,322.4h3.7v0.7H558v2h2.5v0.7H558v2.4h3v0.7h-3.8V322.4z"/>
			<path class="st0" d="M561.9,328l0.5-0.6c0.5,0.5,1.1,0.8,1.8,0.8c0.8,0,1.4-0.4,1.4-1.1c0-0.7-0.5-0.9-1.1-1.1l-0.9-0.4
				c-0.6-0.3-1.3-0.7-1.3-1.7c0-1,0.9-1.7,2-1.7c0.8,0,1.4,0.3,1.9,0.8l-0.4,0.5c-0.4-0.4-0.9-0.6-1.5-0.6c-0.7,0-1.2,0.4-1.2,1
				c0,0.6,0.6,0.9,1.1,1.1l0.9,0.4c0.8,0.3,1.3,0.8,1.3,1.7c0,1-0.8,1.8-2.2,1.8C563.3,329,562.5,328.6,561.9,328z"/>
			<path class="st0" d="M567.7,322.4h3.7v0.7h-2.9v2h2.5v0.7h-2.5v2.4h3v0.7h-3.8V322.4z"/>
			<path class="st0" d="M572.9,322.4h2c1.3,0,2.3,0.5,2.3,1.8c0,1-0.6,1.6-1.5,1.8l1.7,2.8h-0.9l-1.6-2.7h-1.2v2.7h-0.8V322.4z
				 M574.8,325.5c1,0,1.6-0.4,1.6-1.2c0-0.9-0.6-1.2-1.6-1.2h-1.1v2.4H574.8z"/>
			<path class="st0" d="M577.7,322.4h0.9l1.1,3.5c0.2,0.8,0.4,1.4,0.6,2.1h0c0.2-0.8,0.4-1.4,0.6-2.1l1-3.5h0.8l-2.1,6.5h-0.9
				L577.7,322.4z"/>
			<path class="st0" d="M583.6,322.4h3.7v0.7h-2.9v2h2.5v0.7h-2.5v2.4h3v0.7h-3.8V322.4z"/>
			<path class="st0" d="M588.8,322.4h1.6c2,0,3.1,1.2,3.1,3.2c0,2-1.1,3.3-3,3.3h-1.7V322.4z M590.4,328.2c1.5,0,2.3-1,2.3-2.6
				c0-1.6-0.7-2.6-2.3-2.6h-0.7v5.1H590.4z"/>
			<path class="st0" d="M594.7,328.4c0-0.4,0.3-0.6,0.6-0.6s0.6,0.3,0.6,0.6c0,0.4-0.3,0.6-0.6,0.6S594.7,328.8,594.7,328.4z"/>
		</g>
	</g>
</g>
<g>
	<path d="M439.9,213.7c0,0.1,0,0.2-0.1,0.2h-12c-0.1,0-0.1-0.1-0.1-0.2v-0.6c0-0.1,0-0.2,0.1-0.2h5.5v-1.2c-0.6,0-1.1-0.1-1.6-0.3
		c-0.5-0.1-0.9-0.3-1.2-0.5s-0.6-0.5-0.8-0.8c-0.2-0.3-0.3-0.6-0.3-1c0-0.4,0.1-0.7,0.3-1c0.2-0.3,0.6-0.6,1-0.8h-2
		c-0.1,0-0.1-0.1-0.1-0.2v-0.6c0-0.1,0-0.2,0.1-0.2h4.6v-1.2c0-0.1,0.1-0.1,0.2-0.1h0.7c0.1,0,0.1,0,0.1,0.1v1.2h4.6
		c0.1,0,0.1,0.1,0.1,0.2v0.6c0,0.1,0,0.2-0.1,0.2h-2c0.4,0.2,0.7,0.5,1,0.8c0.2,0.3,0.3,0.6,0.3,1c0,0.4-0.1,0.7-0.3,1
		c-0.2,0.3-0.5,0.6-0.8,0.8s-0.8,0.4-1.2,0.5c-0.5,0.1-1,0.2-1.6,0.3v1.2h5.5c0.1,0,0.1,0.1,0.1,0.2V213.7z M438.6,218.8
		c0,0.3-0.1,0.5-0.3,0.6c-0.2,0.2-0.4,0.3-0.6,0.3h-8c-0.2,0-0.4-0.1-0.6-0.3c-0.2-0.2-0.3-0.4-0.3-0.6v-3.6c0,0,0-0.1,0-0.1
		s0.1,0,0.1,0h9.4c0,0,0.1,0,0.1,0s0,0.1,0,0.1V218.8z M437.6,215.9h-7.7v2.9h7.7V215.9z M437.2,209.2c0-0.3-0.1-0.5-0.3-0.7
		c-0.2-0.2-0.4-0.4-0.7-0.5s-0.7-0.2-1.1-0.3c-0.4-0.1-0.9-0.1-1.4-0.1c-0.5,0-1,0-1.4,0.1c-0.4,0.1-0.8,0.2-1.1,0.3
		s-0.5,0.3-0.7,0.5c-0.2,0.2-0.3,0.4-0.3,0.7c0,0.3,0.1,0.5,0.3,0.7c0.2,0.2,0.4,0.4,0.7,0.5c0.3,0.1,0.7,0.3,1.1,0.3
		c0.4,0.1,0.9,0.1,1.4,0.1c0.5,0,1,0,1.4-0.1c0.4-0.1,0.8-0.2,1.1-0.3c0.3-0.1,0.5-0.3,0.7-0.5C437.1,209.6,437.2,209.4,437.2,209.2
		z"/>
	<path d="M448.7,218c0,0,0,0.1,0,0.1s-0.1,0-0.1,0h-7.2c0,0-0.1,0-0.1,0s0-0.1,0-0.1v-0.6c0,0,0-0.1,0-0.1s0.1,0,0.1,0h1.3v-10.2h-1
		c0,0-0.1,0-0.1,0s0-0.1,0-0.1v-0.6c0,0,0-0.1,0-0.1s0.1,0,0.1,0h6.6c0,0,0.1,0,0.1,0s0,0.1,0,0.1v0.6c0,0,0,0.1,0,0.1s-0.1,0-0.1,0
		h-1v10.2h1.3c0,0,0.1,0,0.1,0s0,0.1,0,0.1V218z M446.3,217.3v-10.2h-2.6v10.2H446.3z M448,212.5C447.9,212.5,447.9,212.4,448,212.5
		c-0.1-0.1-0.1-0.1-0.1-0.1v-0.6c0,0,0-0.1,0-0.1c0,0,0.1,0,0.1,0h1.7V206c0,0,0-0.1,0-0.1c0,0,0.1,0,0.1,0h0.7c0,0,0.1,0,0.1,0
		c0,0,0,0.1,0,0.1v13.5c0,0,0,0.1,0,0.1c0,0-0.1,0-0.1,0h-0.7c0,0-0.1,0-0.1,0c0,0,0-0.1,0-0.1v-7.1H448z M453.2,219.5
		c0,0.1,0,0.1-0.1,0.1h-0.7c-0.1,0-0.1,0-0.1-0.1V206c0-0.1,0-0.1,0.1-0.1h0.7c0.1,0,0.1,0,0.1,0.1V219.5z"/>
	<path d="M463.6,212.2c0,0.9-0.1,1.8-0.3,2.5c-0.2,0.8-0.4,1.4-0.8,1.9c-0.3,0.5-0.7,1-1.2,1.3c-0.5,0.3-1,0.5-1.6,0.5
		c-0.6,0-1.1-0.2-1.6-0.5c-0.5-0.3-0.9-0.7-1.2-1.3c-0.3-0.5-0.6-1.2-0.8-1.9c-0.2-0.8-0.3-1.6-0.3-2.5c0-0.9,0.1-1.8,0.3-2.5
		c0.2-0.8,0.4-1.4,0.8-1.9c0.3-0.5,0.7-1,1.2-1.3c0.5-0.3,1-0.5,1.6-0.5c0.6,0,1.1,0.2,1.6,0.5c0.5,0.3,0.9,0.7,1.2,1.3
		c0.3,0.5,0.6,1.2,0.8,1.9C463.6,210.4,463.6,211.3,463.6,212.2z M462.6,212.2c0-0.8-0.1-1.5-0.2-2.1c-0.1-0.6-0.3-1.2-0.6-1.7
		s-0.5-0.8-0.9-1.1c-0.3-0.3-0.7-0.4-1.2-0.4c-0.4,0-0.8,0.1-1.2,0.4c-0.3,0.3-0.6,0.6-0.9,1.1s-0.4,1-0.6,1.7
		c-0.1,0.6-0.2,1.3-0.2,2.1c0,0.8,0.1,1.5,0.2,2.1c0.1,0.6,0.3,1.2,0.6,1.7c0.3,0.5,0.5,0.8,0.9,1.1c0.3,0.3,0.7,0.4,1.2,0.4
		c0.4,0,0.8-0.1,1.2-0.4c0.3-0.3,0.6-0.6,0.9-1.1c0.3-0.5,0.4-1,0.6-1.7C462.6,213.6,462.6,212.9,462.6,212.2z M467.1,219.5
		c0,0.1,0,0.1-0.1,0.1h-0.7c-0.1,0-0.1,0-0.1-0.1V206c0-0.1,0-0.1,0.1-0.1h0.7c0.1,0,0.1,0,0.1,0.1V219.5z"/>
	<path d="M478.3,217.9c0,0.1,0,0.2-0.1,0.2l-0.6,0.3c-0.1,0-0.1,0-0.2-0.1l-3.2-10.1l-3.3,10.1c0,0.1-0.1,0.1-0.2,0.1l-0.6-0.3
		c-0.1,0-0.1-0.1-0.1-0.2l3.5-10.8h-2.9c0,0-0.1,0-0.1,0s0-0.1,0-0.1v-0.6c0,0,0-0.1,0-0.1s0.1,0,0.1,0h7.2c0,0,0.1,0,0.1,0
		s0,0.1,0,0.1v0.6c0,0,0,0.1,0,0.1s-0.1,0-0.1,0h-3L478.3,217.9z M481.1,219.5c0,0.1,0,0.1-0.1,0.1h-0.7c-0.1,0-0.1,0-0.1-0.1V206
		c0-0.1,0-0.1,0.1-0.1h0.7c0.1,0,0.1,0,0.1,0.1V219.5z"/>
	<path d="M494.5,218.3c0,0.1,0,0.1-0.1,0.1h-0.7c-0.1,0-0.1,0-0.1-0.1v-11.3H489c-0.1,0-0.2-0.1-0.2-0.2v-0.6c0-0.1,0.1-0.2,0.2-0.2
		h5.3c0.1,0,0.1,0.1,0.1,0.2V218.3z M497.6,219.5c0,0,0,0.1,0,0.1c0,0-0.1,0-0.1,0h-0.7c0,0-0.1,0-0.1,0c0,0,0-0.1,0-0.1V206
		c0,0,0-0.1,0-0.1c0,0,0.1,0,0.1,0h0.7c0,0,0.1,0,0.1,0c0,0,0,0.1,0,0.1v5.4h1.9V206c0-0.1,0-0.1,0.1-0.1h0.7c0.1,0,0.1,0,0.1,0.1
		v13.5c0,0.1,0,0.1-0.1,0.1h-0.7c-0.1,0-0.1,0-0.1-0.1v-7.2h-1.9V219.5z"/>
	<path d="M511.8,213.4c0,0,0,0.1,0,0.1c0,0-0.1,0.1-0.1,0.1h-8.1c0,0-0.1,0-0.1-0.1c0,0,0-0.1,0-0.1v-0.6c0-0.1,0-0.1,0.1-0.1h1.3
		v-5.6h-1c-0.1,0-0.2-0.1-0.2-0.2v-0.6c0-0.1,0.1-0.2,0.2-0.2h7.6c0.1,0,0.1,0.1,0.1,0.2v0.6c0,0.1,0,0.2-0.1,0.2h-1v5.6h1.3
		c0.1,0,0.2,0,0.2,0.1V213.4z M514.8,219.5c0,0.1,0,0.1-0.1,0.1H506c-0.2,0-0.4-0.1-0.6-0.3c-0.2-0.2-0.3-0.4-0.3-0.6V215
		c0,0,0-0.1,0-0.1c0,0,0.1,0,0.1,0h0.7c0,0,0.1,0,0.1,0c0,0,0,0.1,0,0.1v3.8h8.6c0,0,0.1,0,0.1,0.1c0,0,0,0.1,0,0.1V219.5z
		 M509.4,212.6v-5.6h-3.6v5.6H509.4z M511.4,211.8C511.4,211.8,511.3,211.8,511.4,211.8c-0.1-0.1-0.1-0.1-0.1-0.2V211
		c0,0,0-0.1,0-0.1s0.1,0,0.1,0h2.1v-2.1h-2.1c0,0-0.1,0-0.1,0s0-0.1,0-0.1V208c0,0,0-0.1,0-0.1s0.1,0,0.1,0h2.1V206
		c0-0.1,0-0.1,0.1-0.1h0.7c0,0,0.1,0,0.1,0c0,0,0,0.1,0,0.1v9.9c0,0,0,0.1,0,0.1s-0.1,0-0.1,0h-0.7c-0.1,0-0.1-0.1-0.1-0.2v-4.1
		H511.4z"/>
	<path d="M533.8,217.3c0,0.4-0.1,0.8-0.4,1.2s-0.6,0.7-1,0.9c-0.4,0.3-1,0.4-1.6,0.6c-0.6,0.1-1.3,0.2-2,0.2c-0.7,0-1.4-0.1-2-0.2
		c-0.6-0.1-1.1-0.3-1.6-0.6c-0.4-0.3-0.8-0.6-1-0.9c-0.2-0.4-0.4-0.7-0.4-1.2c0-0.4,0.1-0.8,0.3-1.1c0.2-0.3,0.5-0.6,0.9-0.9
		c0.4-0.3,0.9-0.5,1.4-0.6c0.6-0.2,1.2-0.2,1.8-0.3v-1.5h-5.5c-0.1,0-0.1-0.1-0.1-0.2v-0.6c0-0.1,0-0.2,0.1-0.2h12
		c0.1,0,0.1,0.1,0.1,0.2v0.6c0,0.1,0,0.2-0.1,0.2h-5.5v1.5c0.7,0,1.3,0.1,1.8,0.3c0.6,0.2,1,0.4,1.4,0.6c0.4,0.3,0.7,0.5,0.9,0.9
		C533.7,216.5,533.8,216.9,533.8,217.3z M533.4,211.1C533.4,211.1,533.3,211.1,533.4,211.1c-0.1,0.1-0.2,0.1-0.2,0l-4.5-3.8
		l-4.5,3.8c0,0-0.1,0-0.1,0c0,0-0.1,0-0.1,0l-0.4-0.5c-0.1-0.1-0.1-0.1,0-0.2l4-3.4H524c0,0-0.1,0-0.1,0c0,0,0-0.1,0-0.1v-0.6
		c0,0,0-0.1,0-0.1s0.1,0,0.1,0h9.4c0,0,0.1,0,0.1,0s0,0.1,0,0.1v0.6c0,0.1,0,0.1,0,0.1c0,0-0.1,0-0.1,0h-3.7l4,3.4
		c0.1,0.1,0.1,0.1,0,0.2L533.4,211.1z M532.7,217.3c0-0.3-0.1-0.6-0.3-0.8c-0.2-0.2-0.5-0.4-0.8-0.6c-0.3-0.2-0.8-0.3-1.3-0.4
		c-0.5-0.1-1-0.1-1.6-0.1s-1.1,0-1.6,0.1c-0.5,0.1-0.9,0.2-1.3,0.4c-0.3,0.2-0.6,0.4-0.8,0.6c-0.2,0.2-0.3,0.5-0.3,0.8
		c0,0.3,0.1,0.6,0.3,0.8c0.2,0.2,0.5,0.4,0.8,0.6c0.3,0.2,0.8,0.3,1.3,0.4c0.5,0.1,1,0.1,1.6,0.1s1.1,0,1.6-0.1
		c0.5-0.1,0.9-0.2,1.3-0.4c0.3-0.2,0.6-0.4,0.8-0.6C532.6,217.9,532.7,217.6,532.7,217.3z"/>
	<path d="M544.5,209.3c0,0.5-0.1,0.9-0.3,1.4c-0.2,0.4-0.5,0.8-0.8,1.1c-0.3,0.3-0.7,0.5-1.2,0.7c-0.5,0.2-1,0.3-1.5,0.3
		c-0.6,0-1.1-0.1-1.5-0.3c-0.5-0.2-0.9-0.4-1.2-0.7c-0.3-0.3-0.6-0.7-0.8-1.1c-0.2-0.4-0.3-0.9-0.3-1.4c0-0.5,0.1-0.9,0.3-1.3
		c0.2-0.4,0.4-0.8,0.8-1.1c0.3-0.3,0.7-0.5,1.2-0.7c0.5-0.2,1-0.3,1.5-0.3c0.6,0,1.1,0.1,1.5,0.3c0.5,0.2,0.9,0.4,1.2,0.7
		c0.3,0.3,0.6,0.7,0.8,1.1C544.4,208.4,544.5,208.8,544.5,209.3z M543.5,209.3c0-0.4-0.1-0.7-0.2-1c-0.1-0.3-0.3-0.6-0.6-0.8
		c-0.2-0.2-0.5-0.4-0.9-0.5c-0.3-0.1-0.7-0.2-1.1-0.2c-0.4,0-0.8,0.1-1.1,0.2c-0.3,0.1-0.6,0.3-0.9,0.5c-0.2,0.2-0.4,0.5-0.6,0.8
		c-0.1,0.3-0.2,0.6-0.2,1c0,0.4,0.1,0.7,0.2,1c0.1,0.3,0.3,0.6,0.6,0.8c0.2,0.2,0.5,0.4,0.9,0.5c0.3,0.1,0.7,0.2,1.1,0.2
		c0.4,0,0.8-0.1,1.1-0.2c0.3-0.1,0.6-0.3,0.9-0.5c0.2-0.2,0.4-0.5,0.6-0.8C543.4,210,543.5,209.7,543.5,209.3z M548,218.8
		c0,0.3-0.1,0.5-0.3,0.6c-0.2,0.2-0.4,0.3-0.6,0.3h-7.7c-0.2,0-0.4-0.1-0.6-0.3c-0.2-0.2-0.3-0.4-0.3-0.6V214c0-0.1,0-0.1,0.1-0.1
		h0.7c0.1,0,0.1,0,0.1,0.1v1.7h7.4V214c0-0.1,0-0.1,0.1-0.1h0.7c0.1,0,0.1,0,0.1,0.1V218.8z M547,216.6h-7.4v2.2h7.4V216.6z
		 M548,213.2c0,0.1,0,0.2-0.1,0.2h-0.7c-0.1,0-0.1-0.1-0.1-0.2V206c0-0.1,0-0.1,0.1-0.1h0.7c0.1,0,0.1,0,0.1,0.1V213.2z"/>
	<path d="M559.2,217.9C559.2,217.9,559.2,217.9,559.2,217.9c-0.1,0.1-0.1,0.1-0.1,0.1h-6.7c-0.2,0-0.4-0.1-0.6-0.3
		c-0.2-0.2-0.3-0.4-0.3-0.6v-11c0,0,0-0.1,0-0.1s0.1,0,0.1,0h0.7c0,0,0.1,0,0.1,0s0,0.1,0,0.1v11h6.6c0.1,0,0.1,0,0.1,0.1V217.9z
		 M562,219.5c0,0.1,0,0.1-0.1,0.1h-0.7c-0.1,0-0.1,0-0.1-0.1V206c0-0.1,0-0.1,0.1-0.1h0.7c0.1,0,0.1,0,0.1,0.1V219.5z"/>
	<path d="M573.3,218c0,0,0,0.1-0.1,0.1c0,0-0.1,0-0.1,0h-6.7c-0.2,0-0.4-0.1-0.6-0.3c-0.2-0.2-0.3-0.4-0.3-0.6v-11c0,0,0-0.1,0-0.1
		s0.1,0,0.1,0h6.9c0.1,0,0.2,0.1,0.2,0.2v0.6c0,0.1-0.1,0.2-0.2,0.2h-6v10.2h6.6c0,0,0.1,0,0.1,0c0,0,0.1,0.1,0.1,0.1V218z
		 M576.2,219.5c0,0.1,0,0.1-0.1,0.1h-0.7c-0.1,0-0.2,0-0.2-0.1V206c0-0.1,0.1-0.1,0.2-0.1h0.7c0.1,0,0.1,0,0.1,0.1v5.4h1.9
		c0,0,0.1,0,0.1,0.1c0,0,0,0.1,0,0.1v0.6c0,0.1,0,0.2-0.1,0.2h-1.9V219.5z"/>
	<path d="M580.4,218.3c0,0.2-0.1,0.4-0.2,0.5c-0.1,0.1-0.3,0.2-0.5,0.2c-0.2,0-0.4-0.1-0.5-0.2c-0.1-0.1-0.2-0.3-0.2-0.5
		c0-0.2,0.1-0.4,0.2-0.5c0.1-0.1,0.3-0.2,0.5-0.2c0.2,0,0.4,0.1,0.5,0.2S580.4,218.1,580.4,218.3z"/>
	<path d="M404.7,232.1c0,0.1,0,0.2-0.1,0.2h-12c-0.1,0-0.1-0.1-0.1-0.2v-0.6c0-0.1,0-0.2,0.1-0.2h5.1v-2.7c0-0.1,0-0.1,0.1-0.1h0.7
		c0.1,0,0.1,0,0.1,0.1v2.7h5.9c0.1,0,0.1,0.1,0.1,0.2V232.1z M403.4,230.3C403.4,230.4,403.4,230.4,403.4,230.3
		c-0.1,0.1-0.1,0.1-0.1,0.1h-0.7c0,0-0.1,0-0.1,0s0-0.1,0-0.1v-4.2h-8.7c0,0-0.1,0-0.1,0c0,0,0-0.1,0-0.1v-0.6c0,0,0-0.1,0-0.1
		s0.1,0,0.1,0h9.6c0,0,0.1,0,0.1,0s0,0.1,0,0.1V230.3z M403.6,238.7c0,0,0,0.1-0.1,0.1c0,0-0.1,0-0.1,0h-8.9c-0.2,0-0.4-0.1-0.6-0.3
		c-0.2-0.2-0.3-0.4-0.3-0.6v-3.9c0-0.1,0-0.1,0-0.1s0.1,0,0.1,0h9.4c0,0,0.1,0,0.1,0s0,0.1,0,0.1v0.6c0,0,0,0.1,0,0.1s-0.1,0-0.1,0
		h-8.6v3.1h8.7c0,0,0.1,0,0.1,0.1c0,0,0.1,0.1,0.1,0.1V238.7z"/>
	<path d="M418.3,237.2c0,0.1,0,0.2-0.1,0.2l-0.7,0.2c-0.1,0-0.2,0-0.2-0.1l-2.5-10.4l-2.5,10.4c0,0.1-0.1,0.1-0.2,0.1l-0.6-0.2
		c-0.1,0-0.1-0.1-0.1-0.2l2.9-12c0-0.1,0.1-0.2,0.2-0.2c0.1-0.1,0.2-0.1,0.3-0.1s0.2,0,0.3,0.1c0.1,0.1,0.2,0.1,0.2,0.2L418.3,237.2
		z M420.5,238.7c0,0.1,0,0.1-0.1,0.1h-0.7c-0.1,0-0.2,0-0.2-0.1v-13.5c0-0.1,0.1-0.1,0.2-0.1h0.7c0.1,0,0.1,0,0.1,0.1v5.4h1.9v-5.4
		c0,0,0-0.1,0-0.1c0,0,0.1,0,0.1,0h0.7c0,0,0.1,0,0.1,0c0,0,0,0.1,0,0.1v13.5c0,0,0,0.1,0,0.1c0,0-0.1,0-0.1,0h-0.7c0,0-0.1,0-0.1,0
		c0,0,0-0.1,0-0.1v-7.2h-1.9V238.7z"/>
	<path d="M438,238.1h-12c-0.1,0-0.1-0.1-0.1-0.2v-0.6c0-0.1,0-0.2,0.1-0.2h5.5v-3.1H428c-0.2,0-0.4-0.1-0.6-0.3
		c-0.2-0.2-0.3-0.4-0.3-0.6v-3.8c0,0,0-0.1,0-0.1s0.1,0,0.1,0h8.6v-3h-8.6c0,0-0.1,0-0.1,0s0-0.1,0-0.1v-0.6c0,0,0-0.1,0-0.1
		s0.1,0,0.1,0h9.4c0,0,0.1,0,0.1,0s0,0.1,0,0.1v4.4c0,0.1,0,0.1,0,0.1c0,0-0.1,0-0.1,0h-8.6v3.1h8.9c0.1,0,0.1,0.1,0.1,0.2v0.6
		c0,0,0,0.1,0,0.1c0,0-0.1,0.1-0.1,0.1h-4.5v3.1h5.5c0.1,0,0.1,0.1,0.1,0.2v0.6C438.1,238.1,438.1,238.1,438,238.1z"/>
	<path d="M447,236C447,236.1,447,236.1,447,236c-0.1,0.1-0.1,0.1-0.1,0.1h-0.7c-0.1,0-0.1,0-0.1-0.1v-2.9h-5.9c0,0-0.1,0-0.1,0
		c0,0,0-0.1,0-0.1v-0.6c0-0.1,0-0.1,0.1-0.1h12c0.1,0,0.1,0,0.1,0.1v0.6c0,0,0,0.1,0,0.1c0,0-0.1,0-0.1,0H447V236z M451.1,227.8
		c0,0.5-0.1,0.9-0.4,1.2c-0.3,0.4-0.6,0.7-1,0.9c-0.4,0.3-1,0.5-1.6,0.6c-0.6,0.1-1.3,0.2-2,0.2c-0.7,0-1.4-0.1-2-0.2
		c-0.6-0.1-1.1-0.3-1.6-0.6c-0.4-0.3-0.8-0.6-1-0.9c-0.2-0.4-0.4-0.8-0.4-1.2c0-0.4,0.1-0.9,0.4-1.2c0.2-0.4,0.6-0.7,1-1
		c0.4-0.3,1-0.5,1.6-0.6c0.6-0.1,1.3-0.2,2-0.2c0.7,0,1.4,0.1,2,0.2c0.6,0.1,1.1,0.3,1.6,0.6c0.4,0.3,0.8,0.6,1,1
		C451,226.9,451.1,227.3,451.1,227.8z M451.1,238.7c0,0,0,0.1-0.1,0.1c0,0-0.1,0-0.1,0h-8.9c-0.2,0-0.4-0.1-0.6-0.3
		c-0.2-0.2-0.3-0.4-0.3-0.6v-3.3c0-0.1,0-0.1,0-0.1c0,0,0.1,0,0.1,0h0.7c0,0,0.1,0,0.1,0c0,0,0,0.1,0,0.1v3.3h8.7c0,0,0.1,0,0.1,0.1
		c0,0,0.1,0.1,0.1,0.1V238.7z M450,227.8c0-0.3-0.1-0.6-0.3-0.9c-0.2-0.3-0.5-0.5-0.8-0.7c-0.3-0.2-0.8-0.3-1.3-0.4
		c-0.5-0.1-1-0.1-1.6-0.1s-1.1,0-1.6,0.1c-0.5,0.1-0.9,0.2-1.3,0.4c-0.3,0.2-0.6,0.4-0.8,0.7c-0.2,0.3-0.3,0.6-0.3,0.9
		c0,0.3,0.1,0.6,0.3,0.9c0.2,0.3,0.5,0.5,0.8,0.7c0.3,0.2,0.8,0.3,1.3,0.4c0.5,0.1,1,0.1,1.6,0.1s1.1,0,1.6-0.1
		c0.5-0.1,0.9-0.2,1.3-0.4c0.3-0.2,0.6-0.4,0.8-0.7C449.9,228.4,450,228.1,450,227.8z"/>
	<path d="M471.5,238c0,0.1,0,0.2-0.1,0.2h-12c-0.1,0-0.1-0.1-0.1-0.2v-0.6c0-0.1,0-0.2,0.1-0.2h5.5v-4.1h-3.5
		c-0.2,0-0.4-0.1-0.6-0.3c-0.2-0.2-0.3-0.4-0.3-0.6v-6.8c0,0,0-0.1,0-0.1s0.1,0,0.1,0h9.4c0,0,0.1,0,0.1,0s0,0.1,0,0.1v6.8
		c0,0.3-0.1,0.5-0.3,0.6c-0.2,0.2-0.4,0.3-0.6,0.3h-3.5v4.1h5.5c0.1,0,0.1,0.1,0.1,0.2V238z M469.3,226.3h-7.7v6h7.7V226.3z"/>
	<path d="M485.6,232.1c0,0.1,0,0.2-0.1,0.2h-12c-0.1,0-0.1-0.1-0.1-0.2v-0.6c0-0.1,0-0.2,0.1-0.2h12c0.1,0,0.1,0.1,0.1,0.2V232.1z
		 M484.4,230.3c-0.1,0.1-0.1,0.1-0.2,0l-4.7-4.6l-4.7,4.6c-0.1,0.1-0.1,0-0.2,0l-0.4-0.5c-0.1-0.1-0.1-0.1,0-0.2l4.7-4.5
		c0.2-0.2,0.4-0.3,0.6-0.3c0.2,0,0.4,0.1,0.6,0.3l4.7,4.5c0.1,0.1,0.1,0.1,0,0.2L484.4,230.3z M484.3,238c0,0.3-0.1,0.5-0.3,0.6
		c-0.2,0.2-0.4,0.3-0.6,0.3h-8c-0.2,0-0.4-0.1-0.6-0.3c-0.2-0.2-0.3-0.4-0.3-0.6v-4.4c0,0,0-0.1,0-0.1s0.1,0,0.1,0h0.7
		c0,0,0.1,0,0.1,0s0,0.1,0,0.1v1.5h7.7v-1.5c0,0,0-0.1,0-0.1s0.1,0,0.1,0h0.7c0,0,0.1,0,0.1,0s0,0.1,0,0.1V238z M483.3,236h-7.7v1.9
		h7.7V236z"/>
	<path d="M499.7,238c0,0.1,0,0.2-0.1,0.2h-12c-0.1,0-0.1-0.1-0.1-0.2v-0.6c0-0.1,0-0.2,0.1-0.2h12c0.1,0,0.1,0.1,0.1,0.2V238z
		 M498.6,229.3c0,0.7-0.1,1.3-0.4,1.8s-0.6,1-1,1.4c-0.4,0.4-1,0.7-1.6,0.9c-0.6,0.2-1.3,0.3-2.1,0.3c-0.7,0-1.4-0.1-2-0.3
		c-0.6-0.2-1.2-0.5-1.6-0.9c-0.4-0.4-0.8-0.8-1-1.4s-0.4-1.1-0.4-1.8s0.1-1.3,0.4-1.8c0.3-0.5,0.6-1,1-1.4c0.4-0.4,1-0.7,1.6-0.9
		c0.6-0.2,1.3-0.3,2-0.3c0.8,0,1.4,0.1,2.1,0.3c0.6,0.2,1.2,0.5,1.6,0.9c0.4,0.4,0.8,0.8,1,1.4C498.5,228,498.6,228.6,498.6,229.3z
		 M497.6,229.3c0-0.5-0.1-1-0.3-1.5c-0.2-0.4-0.5-0.8-0.8-1.1c-0.4-0.3-0.8-0.5-1.3-0.7s-1.1-0.2-1.7-0.2c-0.6,0-1.2,0.1-1.7,0.2
		s-0.9,0.4-1.3,0.7c-0.4,0.3-0.6,0.7-0.8,1.1c-0.2,0.4-0.3,0.9-0.3,1.5c0,0.5,0.1,1,0.3,1.5c0.2,0.4,0.5,0.8,0.8,1.1
		c0.4,0.3,0.8,0.5,1.3,0.7s1.1,0.2,1.7,0.2c0.6,0,1.2-0.1,1.7-0.2s0.9-0.4,1.3-0.7c0.4-0.3,0.6-0.7,0.8-1.1
		C497.5,230.3,497.6,229.8,497.6,229.3z"/>
	<path d="M513.6,238.1h-12c-0.1,0-0.1-0.1-0.1-0.2v-0.6c0-0.1,0-0.2,0.1-0.2h5.5v-3.1h-3.5c-0.2,0-0.4-0.1-0.6-0.3
		c-0.2-0.2-0.3-0.4-0.3-0.6v-3.8c0,0,0-0.1,0-0.1s0.1,0,0.1,0h8.6v-3h-8.6c0,0-0.1,0-0.1,0s0-0.1,0-0.1v-0.6c0,0,0-0.1,0-0.1
		s0.1,0,0.1,0h9.4c0,0,0.1,0,0.1,0s0,0.1,0,0.1v4.4c0,0.1,0,0.1,0,0.1c0,0-0.1,0-0.1,0h-8.6v3.1h8.9c0.1,0,0.1,0.1,0.1,0.2v0.6
		c0,0,0,0.1,0,0.1c0,0-0.1,0.1-0.1,0.1h-4.5v3.1h5.5c0.1,0,0.1,0.1,0.1,0.2v0.6C513.8,238.1,513.7,238.1,513.6,238.1z"/>
	<path d="M529,231.4c0.1,0.1,0.1,0.2,0,0.2l-0.5,0.4c0,0-0.1,0-0.1,0c0,0-0.1,0-0.1-0.1l-3.1-4.6l-3.1,4.6c0,0-0.1,0.1-0.1,0.1
		c-0.1,0-0.1,0-0.1,0l-0.5-0.4c0,0-0.1-0.1-0.1-0.1c0,0,0-0.1,0-0.1l3-4.4h-2.5c-0.1,0-0.1-0.1-0.1-0.2v-0.6c0-0.1,0-0.2,0.1-0.2
		h2.9v-1.5c0,0,0-0.1,0-0.1c0,0,0.1,0,0.1,0h0.7c0,0,0.1,0,0.1,0c0,0,0,0.1,0,0.1v1.5h2.9c0.1,0,0.2,0.1,0.2,0.2v0.6
		c0,0.1-0.1,0.2-0.2,0.2H526L529,231.4z M531.9,239c0,0-0.1,0-0.1,0.1c0,0-0.1,0-0.1,0l-4.4-4.4L523,239c0,0-0.1,0-0.1,0
		c0,0-0.1,0-0.1-0.1l-0.5-0.5c-0.1-0.1-0.1-0.2,0-0.2l3.9-3.9h-3.5c0,0-0.1,0-0.1,0c0,0-0.1-0.1-0.1-0.1v-0.6c0,0,0-0.1,0.1-0.1
		c0,0,0.1,0,0.1,0h9.3c0,0,0.1,0,0.1,0s0,0.1,0,0.1v0.6c0,0,0,0.1,0,0.1c0,0-0.1,0-0.1,0h-3.6l3.9,3.9c0.1,0.1,0.1,0.1,0,0.2
		L531.9,239z M532.1,232.4c0,0,0,0.1,0,0.1s-0.1,0-0.1,0h-0.7c-0.1,0-0.2-0.1-0.2-0.2v-7.2c0-0.1,0.1-0.1,0.2-0.1h0.7
		c0,0,0.1,0,0.1,0c0,0,0,0.1,0,0.1v3h1.7c0,0,0.1,0,0.1,0s0,0.1,0,0.1v0.6c0,0.1-0.1,0.1-0.2,0.1h-1.7V232.4z"/>
	<path d="M542.8,231.4c0,0.9-0.1,1.8-0.3,2.5c-0.2,0.8-0.4,1.4-0.8,1.9c-0.3,0.5-0.7,1-1.2,1.3c-0.5,0.3-1,0.5-1.6,0.5
		c-0.6,0-1.1-0.2-1.6-0.5c-0.5-0.3-0.9-0.7-1.2-1.3c-0.3-0.5-0.6-1.2-0.8-1.9c-0.2-0.8-0.3-1.6-0.3-2.5c0-0.9,0.1-1.8,0.3-2.5
		c0.2-0.8,0.4-1.4,0.8-1.9c0.3-0.5,0.7-1,1.2-1.3c0.5-0.3,1-0.5,1.6-0.5c0.6,0,1.1,0.2,1.6,0.5c0.5,0.3,0.9,0.7,1.2,1.3
		c0.3,0.5,0.6,1.2,0.8,1.9C542.7,229.6,542.8,230.5,542.8,231.4z M541.8,231.4c0-0.8-0.1-1.5-0.2-2.1c-0.1-0.6-0.3-1.2-0.6-1.7
		s-0.5-0.8-0.9-1.1c-0.3-0.3-0.7-0.4-1.2-0.4c-0.4,0-0.8,0.1-1.2,0.4c-0.4,0.3-0.7,0.6-0.9,1.1s-0.4,1-0.6,1.7
		c-0.1,0.6-0.2,1.3-0.2,2.1c0,0.8,0.1,1.5,0.2,2.1c0.1,0.6,0.3,1.2,0.6,1.7c0.3,0.5,0.6,0.8,0.9,1.1c0.4,0.3,0.7,0.4,1.2,0.4
		c0.4,0,0.8-0.1,1.2-0.4c0.3-0.3,0.6-0.6,0.9-1.1c0.3-0.5,0.4-1,0.6-1.7S541.8,232.1,541.8,231.4z M546.2,238.7c0,0.1,0,0.1-0.1,0.1
		h-0.7c-0.1,0-0.2,0-0.2-0.1v-13.5c0-0.1,0.1-0.1,0.2-0.1h0.7c0.1,0,0.1,0,0.1,0.1v5.4h1.9c0,0,0.1,0,0.1,0.1c0,0,0,0.1,0,0.1v0.6
		c0,0.1,0,0.2-0.1,0.2h-1.9V238.7z"/>
	<path d="M558.4,232.9c0,0.1,0,0.2-0.1,0.2h-9.6c-0.1,0-0.1-0.1-0.1-0.2v-0.6c0-0.1,0-0.2,0.1-0.2h4.4v-1.3h-2.6
		c-0.2,0-0.4-0.1-0.6-0.3c-0.2-0.2-0.3-0.4-0.3-0.6v-4.7c0,0,0-0.1,0-0.1c0,0,0.1,0,0.1,0h0.7c0,0,0.1,0,0.1,0c0,0,0,0.1,0,0.1v1.7
		h6v-1.7c0-0.1,0-0.1,0.1-0.1h0.7c0.1,0,0.1,0,0.1,0.1v4.7c0,0.3-0.1,0.5-0.3,0.6c-0.2,0.2-0.4,0.3-0.6,0.3H554v1.3h4.2
		c0.1,0,0.1,0.1,0.1,0.2V232.9z M556.5,227.8h-6v2.1h6V227.8z M560.2,238c0,0.3-0.1,0.5-0.3,0.6c-0.2,0.2-0.4,0.3-0.6,0.3h-8
		c-0.2,0-0.4-0.1-0.6-0.3c-0.2-0.2-0.3-0.4-0.3-0.6v-4.1c0-0.1,0-0.1,0.1-0.1h0.7c0.1,0,0.2,0,0.2,0.1v1.4h7.7v-1.4
		c0-0.1,0-0.1,0.1-0.1h0.7c0.1,0,0.1,0,0.1,0.1V238z M559.2,236.2h-7.7v1.8h7.7V236.2z M560.2,233.2c0,0.1,0,0.2-0.1,0.2h-0.7
		c-0.1,0-0.1-0.1-0.1-0.2v-8c0-0.1,0-0.1,0.1-0.1h0.7c0.1,0,0.1,0,0.1,0.1V233.2z"/>
	<path d="M568.3,231.8C568.3,231.9,568.3,231.9,568.3,231.8c-0.1,0.1-0.1,0.1-0.1,0.1h-0.7c0,0-0.1,0-0.1,0c0,0,0-0.1,0-0.1v-5.6
		h-4.4c-0.1,0-0.2-0.1-0.2-0.2v-0.6c0-0.1,0.1-0.2,0.2-0.2h5.3c0.1,0,0.1,0.1,0.1,0.2v2.6h2.4v-2.9c0-0.1,0.1-0.1,0.2-0.1h0.7
		c0.1,0,0.1,0,0.1,0.1v7.2c0,0.1,0,0.2-0.1,0.2h-0.7c-0.1,0-0.2-0.1-0.2-0.2V229h-2.4V231.8z M575.5,238.5c0,0,0,0.1,0,0.1
		s0,0.1-0.1,0.1l-0.5,0.3c-0.1,0-0.2,0-0.2-0.1l-2.2-4.6l-2.2,4.6c0,0.1-0.1,0.1-0.2,0.1h-0.5c-0.1,0-0.2,0-0.2-0.1l-2.2-4.6
		l-2.2,4.6c0,0.1-0.1,0.1-0.2,0.1l-0.6-0.3c0,0-0.1-0.1-0.1-0.1s0-0.1,0-0.1l2.5-5.2c0-0.1,0.1-0.2,0.2-0.2c0.1-0.1,0.2-0.1,0.3-0.1
		c0.1,0,0.2,0,0.3,0.1c0.1,0.1,0.2,0.1,0.2,0.2l2.1,4.3l2.1-4.3c0.1-0.1,0.1-0.2,0.2-0.2c0.1-0.1,0.2-0.1,0.3-0.1
		c0.1,0,0.2,0,0.3,0.1c0.1,0.1,0.2,0.1,0.2,0.2L575.5,238.5z M574.3,232.4c0,0.1,0,0.2-0.1,0.2h-0.7c-0.1,0-0.1-0.1-0.1-0.2v-7.2
		c0-0.1,0-0.1,0.1-0.1h0.7c0.1,0,0.1,0,0.1,0.1V232.4z"/>
	<path d="M589.4,232.1c0,0.1,0,0.2-0.1,0.2h-12c-0.1,0-0.1-0.1-0.1-0.2v-0.6c0-0.1,0-0.2,0.1-0.2h12c0.1,0,0.1,0.1,0.1,0.2V232.1z
		 M588.1,230.3c-0.1,0.1-0.1,0.1-0.2,0l-4.7-4.6l-4.7,4.6c-0.1,0.1-0.1,0-0.2,0l-0.4-0.5c-0.1-0.1-0.1-0.1,0-0.2l4.7-4.5
		c0.2-0.2,0.4-0.3,0.6-0.3c0.2,0,0.4,0.1,0.6,0.3l4.7,4.5c0.1,0.1,0.1,0.1,0,0.2L588.1,230.3z M588.1,238c0,0.3-0.1,0.5-0.3,0.6
		c-0.2,0.2-0.4,0.3-0.6,0.3h-8c-0.2,0-0.4-0.1-0.6-0.3c-0.2-0.2-0.3-0.4-0.3-0.6v-4.4c0,0,0-0.1,0-0.1s0.1,0,0.1,0h0.7
		c0,0,0.1,0,0.1,0s0,0.1,0,0.1v1.5h7.7v-1.5c0,0,0-0.1,0-0.1s0.1,0,0.1,0h0.7c0,0,0.1,0,0.1,0s0,0.1,0,0.1V238z M587.1,236h-7.7v1.9
		h7.7V236z"/>
	<path d="M599.6,237.1C599.6,237.1,599.6,237.2,599.6,237.1c-0.1,0.1-0.1,0.1-0.1,0.1h-6.7c-0.2,0-0.4-0.1-0.6-0.3
		c-0.2-0.2-0.3-0.4-0.3-0.6v-11c0,0,0-0.1,0-0.1s0.1,0,0.1,0h0.7c0,0,0.1,0,0.1,0s0,0.1,0,0.1v11h6.6c0.1,0,0.1,0,0.1,0.1V237.1z
		 M602.5,238.7c0,0.1,0,0.1-0.1,0.1h-0.7c-0.1,0-0.1,0-0.1-0.1v-13.5c0-0.1,0-0.1,0.1-0.1h0.7c0.1,0,0.1,0,0.1,0.1V238.7z"/>
	<path d="M613.8,237.2c0,0,0,0.1-0.1,0.1c0,0-0.1,0-0.1,0h-6.7c-0.2,0-0.4-0.1-0.6-0.3c-0.2-0.2-0.3-0.4-0.3-0.6v-11
		c0,0,0-0.1,0-0.1s0.1,0,0.1,0h6.9c0.1,0,0.2,0.1,0.2,0.2v0.6c0,0.1-0.1,0.2-0.2,0.2h-6v10.2h6.6c0,0,0.1,0,0.1,0
		c0,0,0.1,0.1,0.1,0.1V237.2z M616.6,238.7c0,0.1,0,0.1-0.1,0.1h-0.7c-0.1,0-0.2,0-0.2-0.1v-13.5c0-0.1,0.1-0.1,0.2-0.1h0.7
		c0.1,0,0.1,0,0.1,0.1v5.4h1.9c0,0,0.1,0,0.1,0.1c0,0,0,0.1,0,0.1v0.6c0,0.1,0,0.2-0.1,0.2h-1.9V238.7z"/>
	<path d="M620.9,237.5c0,0.2-0.1,0.4-0.2,0.5c-0.1,0.1-0.3,0.2-0.5,0.2c-0.2,0-0.4-0.1-0.5-0.2c-0.1-0.1-0.2-0.3-0.2-0.5
		c0-0.2,0.1-0.4,0.2-0.5c0.1-0.1,0.3-0.2,0.5-0.2c0.2,0,0.4,0.1,0.5,0.2S620.9,237.3,620.9,237.5z"/>
</g>
<text transform="matrix(1 0 0 1 982.0677 218.5281)"><tspan x="0" y="0" style="font-family:'NIXGONM-Vb'; font-size:16px;">홈페이지 개편 중입니다. </tspan><tspan x="-35.2" y="19.2" style="font-family:'NIXGONM-Vb'; font-size:16px;">곧 새로운 모습으로 찾아뵙겠습니다.</tspan></text>
</svg>
